<?xml version="1.0" encoding="UTF-8" standalone="no"?>
<svg width="139px" height="43px" viewBox="0 0 139 43" version="1.1" xmlns="http://www.w3.org/2000/svg" xmlns:xlink="http://www.w3.org/1999/xlink">
    <!-- Generator: Sketch 41.2 (35397) - http://www.bohemiancoding.com/sketch -->
    <title>Gradle</title>
    <desc>Created with Sketch.</desc>
    <defs></defs>
    <g id="Logos" stroke="none" stroke-width="1" fill="none" fill-rule="evenodd">
        <g id="Gradle">
            <g id="Group-2" transform="translate(4.000000, 4.000000)">
                <g id="Logo" transform="translate(0.200000, 0.200000)">
                    <g id="Imported-Layers" transform="translate(0.000000, -0.000000)">
                        <g id="Group-7" transform="translate(0.040555, 0.000000)">
                            <path d="M42.6358913,3.68772959 C41.079481,0.889289628 38.2977116,0.0529315812 36.3324493,0.0132817252 C33.9212301,-0.0353528273 31.9409064,1.29994885 32.3154463,2.17654271 C32.3958403,2.36473304 32.8478815,3.3470924 33.1253702,3.75257566 C33.5270406,4.3393154 34.2460974,3.88851802 34.4979518,3.75462652 C35.250024,3.35490518 36.0537637,3.22550602 36.9654268,3.33175982 C37.8368929,3.43332596 38.9946252,3.97045455 39.7713342,5.4627931 C41.5991489,8.97502813 35.9567125,16.2036071 28.8939169,11.1978616 C21.8310217,6.19211606 14.9627276,7.85076916 11.8530987,8.85969197 C8.74356951,9.86841947 7.31423341,10.8829089 8.54298369,13.2289889 C10.2128033,16.4171889 9.65932211,15.4389313 11.2784716,18.0780882 C13.8502792,22.2697421 19.4797488,16.1491129 19.4797488,16.1491129 C15.2860987,22.3308771 11.6912136,20.8372689 10.3123482,18.6762541 C9.06973344,16.7285282 8.10420843,14.4830377 8.10420843,14.4830377 C-2.51736467,18.2290701 0.356368916,34.7663805 0.356368916,34.7663805 L5.63114777,34.7663805 C6.97600043,28.6772955 11.7842751,28.9018153 12.6083627,34.7663805 L16.6332454,34.7663805 C20.192821,22.8763067 29.2146947,34.7663805 29.2146947,34.7663805 L34.4613456,34.7663805 C32.9919123,26.6555435 37.4126803,24.1073078 40.1986389,19.3530361 C42.9848967,14.5983738 45.6241314,8.78185715 42.6358913,3.68772959 L42.6358913,3.68772959 Z M29.1027816,19.3472742 C26.328892,18.4419684 27.3210488,15.6816157 27.3210488,15.6816157 C27.3210488,15.6816157 29.7435391,16.4649445 33.0204392,17.5341234 C32.8318227,18.3903064 31.201801,20.032455 29.1027816,19.3472742 L29.1027816,19.3472742 Z" id="Fill-9" fill="#02303A"></path>
                            <path d="M31.5636734,17.2659498 C31.6465609,18.0300396 31.0619595,18.7172712 30.2578208,18.8008679 C29.4536821,18.8844647 28.734725,18.3327848 28.6518375,17.5685973 C28.56895,16.8045075 29.1536512,16.1172758 29.9576901,16.0336791 C30.7618288,15.9500824 31.4808856,16.5017623 31.5636734,17.2659498" id="Fill-10" fill="#00303A"></path>
                        </g>
                    </g>
                </g>
                <path d="M61.72,24.624 C62.4480036,24.624 63.0819973,24.5580007 63.622,24.426 C64.1620027,24.2939993 64.6759976,24.1120012 65.164,23.88 L65.164,20.724 L62.992,20.724 C62.783999,20.724 62.6200006,20.6660006 62.5,20.55 C62.3799994,20.4339994 62.32,20.2920008 62.32,20.124 L62.32,18.3 L68.092,18.3 L68.092,25.32 C67.6519978,25.6400016 67.1940024,25.9179988 66.718,26.154 C66.2419976,26.3900012 65.7340027,26.5839992 65.194,26.736 C64.6539973,26.8880008 64.0760031,27.0019996 63.46,27.078 C62.8439969,27.1540004 62.1800036,27.192 61.468,27.192 C60.2039937,27.192 59.0400053,26.9720022 57.976,26.532 C56.9119947,26.0919978 55.9920039,25.4800039 55.216,24.696 C54.4399961,23.9119961 53.8340022,22.9760054 53.398,21.888 C52.9619978,20.7999946 52.744,19.6120064 52.744,18.324 C52.744,17.0199935 52.9559979,15.8240054 53.38,14.736 C53.8040021,13.6479946 54.4059961,12.7120039 55.186,11.928 C55.9660039,11.1439961 56.9119944,10.5360022 58.024,10.104 C59.1360056,9.67199784 60.3839931,9.456 61.768,9.456 C63.1840071,9.456 64.4099948,9.6659979 65.446,10.086 C66.4820052,10.5060021 67.3599964,11.0519966 68.08,11.724 L67.144,13.188 C66.9599991,13.4840015 66.7160015,13.632 66.412,13.632 C66.219999,13.632 66.024001,13.5680006 65.824,13.44 C65.5679987,13.2879992 65.3060013,13.1360008 65.038,12.984 C64.7699987,12.8319992 64.4740016,12.7000006 64.15,12.588 C63.8259984,12.4759994 63.462002,12.3840004 63.058,12.312 C62.653998,12.2399996 62.1880026,12.204 61.66,12.204 C60.8039957,12.204 60.0300035,12.3479986 59.338,12.636 C58.6459965,12.9240014 58.0560024,13.3359973 57.568,13.872 C57.0799976,14.4080027 56.7040013,15.0519962 56.44,15.804 C56.1759987,16.5560038 56.044,17.3959954 56.044,18.324 C56.044,19.324005 56.1839986,20.2139961 56.464,20.994 C56.7440014,21.7740039 57.1359975,22.4319973 57.64,22.968 C58.1440025,23.5040027 58.7439965,23.9139986 59.44,24.198 C60.1360035,24.4820014 60.8959959,24.624 61.72,24.624 L61.72,24.624 Z M70.936,27 L70.936,14.688 L72.676,14.688 C72.9800015,14.688 73.1919994,14.7439994 73.312,14.856 C73.4320006,14.9680006 73.5119998,15.1599986 73.552,15.432 L73.732,16.92 C74.1720022,16.1599962 74.687997,15.5600022 75.28,15.12 C75.872003,14.6799978 76.5359963,14.46 77.272,14.46 C77.880003,14.46 78.383998,14.5999986 78.784,14.88 L78.4,17.1 C78.3759999,17.2440007 78.3240004,17.3459997 78.244,17.406 C78.1639996,17.4660003 78.0560007,17.496 77.92,17.496 C77.7999994,17.496 77.636001,17.4680003 77.428,17.412 C77.219999,17.3559997 76.9440017,17.328 76.6,17.328 C75.9839969,17.328 75.4560022,17.4979983 75.016,17.838 C74.5759978,18.1780017 74.2040015,18.6759967 73.9,19.332 L73.9,27 L70.936,27 Z M90.04,27 L88.708,27 C88.4279986,27 88.2080008,26.9580004 88.048,26.874 C87.8879992,26.7899996 87.7680004,26.6200013 87.688,26.364 L87.424,25.488 C87.1119984,25.7680014 86.8060015,26.0139989 86.506,26.226 C86.2059985,26.4380011 85.8960016,26.6159993 85.576,26.76 C85.2559984,26.9040007 84.9160018,27.0119996 84.556,27.084 C84.1959982,27.1560004 83.7960022,27.192 83.356,27.192 C82.8359974,27.192 82.3560022,27.1220007 81.916,26.982 C81.4759978,26.8419993 81.0980016,26.6320014 80.782,26.352 C80.4659984,26.0719986 80.2200009,25.7240021 80.044,25.308 C79.8679991,24.8919979 79.78,24.4080028 79.78,23.856 C79.78,23.3919977 79.9019988,22.9340023 80.146,22.482 C80.3900012,22.0299977 80.7959972,21.6220018 81.364,21.258 C81.9320028,20.8939982 82.6879953,20.5920012 83.632,20.352 C84.5760047,20.1119988 85.747993,19.9760002 87.148,19.944 L87.148,19.224 C87.148,18.3999959 86.9740017,17.790002 86.626,17.394 C86.2779983,16.997998 85.7720033,16.8 85.108,16.8 C84.6279976,16.8 84.2280016,16.8559994 83.908,16.968 C83.5879984,17.0800006 83.3100012,17.2059993 83.074,17.346 C82.8379988,17.4860007 82.620001,17.6119994 82.42,17.724 C82.219999,17.8360006 82.0000012,17.892 81.76,17.892 C81.559999,17.892 81.3880007,17.8400005 81.244,17.736 C81.0999993,17.6319995 80.9840004,17.5040008 80.896,17.352 L80.356,16.404 C81.7720071,15.1079935 83.47999,14.46 85.48,14.46 C86.2000036,14.46 86.8419972,14.5779988 87.406,14.814 C87.9700028,15.0500012 88.447998,15.3779979 88.84,15.798 C89.232002,16.2180021 89.529999,16.7199971 89.734,17.304 C89.938001,17.8880029 90.04,18.5279965 90.04,19.224 L90.04,27 Z M84.28,25.152 C84.5840015,25.152 84.8639987,25.1240003 85.12,25.068 C85.3760013,25.0119997 85.6179989,24.9280006 85.846,24.816 C86.0740011,24.7039994 86.2939989,24.5660008 86.506,24.402 C86.7180011,24.2379992 86.9319989,24.0440011 87.148,23.82 L87.148,21.744 C86.2839957,21.7840002 85.5620029,21.8579995 84.982,21.966 C84.4019971,22.0740005 83.9360018,22.2119992 83.584,22.38 C83.2319982,22.5480008 82.9820007,22.7439989 82.834,22.968 C82.6859993,23.1920011 82.612,23.4359987 82.612,23.7 C82.612,24.2200026 82.7659985,24.5919989 83.074,24.816 C83.3820015,25.0400011 83.7839975,25.152 84.28,25.152 L84.28,25.152 Z M101.62,27 C101.235998,27 100.984001,26.8200018 100.864,26.46 L100.624,25.272 C100.367999,25.5600014 100.100001,25.8199988 99.82,26.052 C99.5399986,26.2840012 99.2380016,26.4839992 98.914,26.652 C98.5899984,26.8200008 98.2420019,26.9499995 97.87,27.042 C97.4979981,27.1340005 97.0960022,27.18 96.664,27.18 C95.9919966,27.18 95.3760028,27.0400014 94.816,26.76 C94.2559972,26.4799986 93.774002,26.0740027 93.37,25.542 C92.965998,25.0099973 92.6540011,24.3520039 92.434,23.568 C92.2139989,22.7839961 92.104,21.888005 92.104,20.88 C92.104,19.9679954 92.2279988,19.1200039 92.476,18.336 C92.7240012,17.5519961 93.0799977,16.8720029 93.544,16.296 C94.0080023,15.7199971 94.5639968,15.2700016 95.212,14.946 C95.8600032,14.6219984 96.587996,14.46 97.396,14.46 C98.0840034,14.46 98.6719976,14.5699989 99.16,14.79 C99.6480024,15.0100011 100.083998,15.3039982 100.468,15.672 L100.468,9.168 L103.432,9.168 L103.432,27 L101.62,27 Z M97.672,24.828 C98.2880031,24.828 98.8119978,24.7000013 99.244,24.444 C99.6760022,24.1879987 100.083998,23.8240024 100.468,23.352 L100.468,17.832 C100.131998,17.423998 99.766002,17.1360008 99.37,16.968 C98.973998,16.7999992 98.5480023,16.716 98.092,16.716 C97.6439978,16.716 97.2380018,16.7999992 96.874,16.968 C96.5099982,17.1360008 96.2020013,17.3899983 95.95,17.73 C95.6979987,18.0700017 95.5040007,18.5019974 95.368,19.026 C95.2319993,19.5500026 95.164,20.1679964 95.164,20.88 C95.164,21.6000036 95.2219994,22.2099975 95.338,22.71 C95.4540006,23.2100025 95.6199989,23.6179984 95.836,23.934 C96.0520011,24.2500016 96.3159984,24.4779993 96.628,24.618 C96.9400016,24.7580007 97.2879981,24.828 97.672,24.828 L97.672,24.828 Z M109.792,9.168 L109.792,27 L106.828,27 L106.828,9.168 L109.792,9.168 Z M118.228,14.496 C119.004004,14.496 119.717997,14.6199988 120.37,14.868 C121.022003,15.1160012 121.583998,15.4779976 122.056,15.954 C122.528002,16.4300024 122.895999,17.0139965 123.16,17.706 C123.424001,18.3980035 123.556,19.1879956 123.556,20.076 C123.556,20.3000011 123.546,20.4859993 123.526,20.634 C123.506,20.7820007 123.47,20.8979996 123.418,20.982 C123.366,21.0660004 123.296,21.1259998 123.208,21.162 C123.12,21.1980002 123.008001,21.216 122.872,21.216 L115.264,21.216 C115.352,22.4800063 115.691997,23.407997 116.284,24 C116.876003,24.592003 117.659995,24.888 118.636,24.888 C119.116002,24.888 119.529998,24.8320006 119.878,24.72 C120.226002,24.6079994 120.529999,24.4840007 120.79,24.348 C121.050001,24.2119993 121.277999,24.0880006 121.474,23.976 C121.670001,23.8639994 121.859999,23.808 122.044,23.808 C122.164001,23.808 122.268,23.8319998 122.356,23.88 C122.444,23.9280002 122.52,23.9959996 122.584,24.084 L123.448,25.164 C123.119998,25.5480019 122.752002,25.8699987 122.344,26.13 C121.935998,26.3900013 121.510002,26.5979992 121.066,26.754 C120.621998,26.9100008 120.170002,27.0199997 119.71,27.084 C119.249998,27.1480003 118.804002,27.18 118.372,27.18 C117.515996,27.18 116.720004,27.0380014 115.984,26.754 C115.247996,26.4699986 114.608003,26.0500028 114.064,25.494 C113.519997,24.9379972 113.092002,24.2500041 112.78,23.43 C112.467998,22.6099959 112.312,21.6600054 112.312,20.58 C112.312,19.7399958 112.447999,18.9500037 112.72,18.21 C112.992001,17.4699963 113.381997,16.8260027 113.89,16.278 C114.398003,15.7299973 115.017996,15.2960016 115.75,14.976 C116.482004,14.6559984 117.307995,14.496 118.228,14.496 L118.228,14.496 Z M118.288,16.62 C117.423996,16.62 116.748002,16.8639976 116.26,17.352 C115.771998,17.8400024 115.460001,18.5319955 115.324,19.428 L120.892,19.428 C120.892,19.0439981 120.840001,18.6820017 120.736,18.342 C120.631999,18.0019983 120.472001,17.7040013 120.256,17.448 C120.039999,17.1919987 119.768002,16.9900007 119.44,16.842 C119.111998,16.6939993 118.728002,16.62 118.288,16.62 L118.288,16.62 Z" id="Gradle" fill="#02303A"></path>
            </g>
        </g>
    </g>
</svg>