<?xml version="1.0" encoding="UTF-8" standalone="no"?>
<svg
   xmlns:dc="http://purl.org/dc/elements/1.1/"
   xmlns:cc="http://creativecommons.org/ns#"
   xmlns:rdf="http://www.w3.org/1999/02/22-rdf-syntax-ns#"
   xmlns:svg="http://www.w3.org/2000/svg"
   xmlns="http://www.w3.org/2000/svg"
   id="svg18"
   version="1.1"
   viewBox="0 0 43.953865 34.754391"
   height="34.754391"
   width="43.953865">
  <metadata
     id="metadata22">
    <rdf:RDF>
      <cc:Work
         rdf:about="">
        <dc:format>image/svg+xml</dc:format>
        <dc:type
           rdf:resource="http://purl.org/dc/dcmitype/StillImage" />
        <dc:title>Gradle</dc:title>
      </cc:Work>
    </rdf:RDF>
  </metadata>
  <!-- Generator: Sketch 41.2 (35397) - http://www.bohemiancoding.com/sketch -->
  <title
     id="title2">Gradle</title>
  <desc
     id="desc4">Created with Sketch.</desc>
  <defs
     id="defs6" />
  <g
     id="Logo"
     transform="translate(-0.04263866,-0.01198971)"
     style="fill:none;fill-rule:evenodd;stroke:none;stroke-width:1">
    <g
       id="Imported-Layers">
      <g
         id="Group-7"
         transform="translate(0.040555)">
        <path
           d="M 42.635891,3.6877296 C 41.079481,0.88928963 38.297712,0.05293158 36.332449,0.01328173 33.92123,-0.03535283 31.940906,1.2999488 32.315446,2.1765427 c 0.08039,0.1881903 0.532435,1.1705497 0.809924,1.576033 0.401671,0.5867397 1.120727,0.1359423 1.372582,0.00205 0.752072,-0.3997213 1.555812,-0.5291205 2.467475,-0.4228667 0.871466,0.1015662 2.029198,0.6386948 2.805907,2.1310333 C 41.599149,8.9750281 35.956713,16.203607 28.893917,11.197862 21.831022,6.1921161 14.962728,7.8507692 11.853099,8.859692 8.7435695,9.8684195 7.3142334,10.882909 8.5429837,13.228989 c 1.6698193,3.1882 1.1163384,2.209942 2.7354883,4.849099 2.571807,4.191654 8.201277,-1.928975 8.201277,-1.928975 -4.19365,6.181764 -7.788535,4.688156 -9.167401,2.527141 C 9.0697334,16.728528 8.1042084,14.483038 8.1042084,14.483038 -2.5173647,18.22907 0.35636892,34.76638 0.35636892,34.76638 H 5.6311478 c 1.3448526,-6.089085 6.1531272,-5.864565 6.9772152,0 h 4.024882 c 3.559576,-11.890073 12.58145,0 12.58145,0 h 5.246651 C 32.991912,26.655543 37.41268,24.107308 40.198639,19.353036 42.984897,14.598374 45.624131,8.7818572 42.635891,3.6877296 Z M 29.102782,19.347274 c -2.77389,-0.905306 -1.781733,-3.665658 -1.781733,-3.665658 0,0 2.42249,0.783329 5.69939,1.852507 -0.188616,0.856183 -1.818638,2.498332 -3.917657,1.813151 z"
           id="Fill-9"
           style="fill:#02303a" />
        <path
           d="m 31.563673,17.26595 c 0.08289,0.76409 -0.501714,1.451321 -1.305852,1.534918 -0.804139,0.0836 -1.523096,-0.468083 -1.605984,-1.232271 -0.08289,-0.76409 0.501814,-1.451321 1.305853,-1.534918 0.804139,-0.0836 1.523196,0.468083 1.605983,1.232271"
           id="Fill-10"
           style="fill:#00303a" />
      </g>
    </g>
  </g>
</svg>
