<?xml version="1.0" encoding="UTF-8" standalone="no"?>
<!-- Generator: Adobe Illustrator 21.0.0, SVG Export Plug-In . SVG Version: 6.00 Build 0)  -->

<svg
   xmlns:dc="http://purl.org/dc/elements/1.1/"
   xmlns:cc="http://creativecommons.org/ns#"
   xmlns:rdf="http://www.w3.org/1999/02/22-rdf-syntax-ns#"
   xmlns:svg="http://www.w3.org/2000/svg"
   xmlns="http://www.w3.org/2000/svg"
   xmlns:sodipodi="http://sodipodi.sourceforge.net/DTD/sodipodi-0.dtd"
   xmlns:inkscape="http://www.inkscape.org/namespaces/inkscape"
   version="1.1"
   id="Ebene_1"
   x="0px"
   y="0px"
   viewBox="0 0 529.20001 58.6"
   xml:space="preserve"
   sodipodi:docname="MICROMATA_quer_RGB.svg"
   width="529.20001"
   height="58.599998"
   inkscape:version="0.92.2 5c3e80d, 2017-08-06"><metadata
     id="metadata45"><rdf:RDF><cc:Work
         rdf:about=""><dc:format>image/svg+xml</dc:format><dc:type
           rdf:resource="http://purl.org/dc/dcmitype/StillImage" /><dc:title></dc:title></cc:Work></rdf:RDF></metadata><defs
     id="defs43" /><sodipodi:namedview
     pagecolor="#ffffff"
     bordercolor="#666666"
     borderopacity="1"
     objecttolerance="10"
     gridtolerance="10"
     guidetolerance="10"
     inkscape:pageopacity="0"
     inkscape:pageshadow="2"
     inkscape:window-width="1088"
     inkscape:window-height="523"
     id="namedview41"
     showgrid="false"
     fit-margin-top="0"
     fit-margin-left="0"
     fit-margin-right="0"
     fit-margin-bottom="0"
     inkscape:zoom="0.52941176"
     inkscape:cx="265.1"
     inkscape:cy="29.450002"
     inkscape:window-x="0"
     inkscape:window-y="0"
     inkscape:window-maximized="0"
     inkscape:current-layer="Ebene_1" /><style
     type="text/css"
     id="style2">
	.st0{fill:#009BA3;}
	.st1{fill:#007480;}
	.st2{fill:#FFCB00;}
	.st3{fill:#75BE01;}
	.st4{fill:#32912E;}
	.st5{fill:#E10057;}
	.st6{fill:#A70836;}
	.st7{fill:#FF9D01;}
</style><polygon
     class="st0"
     points="459.1,59 438.4,38.2 429.8,46.8 450.6,67.5 429.8,88.3 438.4,96.8 459.1,76 459.1,76 467.7,67.5 459.1,59 "
     id="polygon4"
     style="fill:#009ba3"
     transform="translate(-40.9,-38.2)" /><rect
     x="-281.09976"
     y="-322.34821"
     transform="rotate(135.02026)"
     class="st1"
     width="12.10074"
     height="12.10074"
     id="rect6"
     style="fill:#007480;stroke-width:1.00006115" /><g
     id="g26"
     transform="translate(-40.9,-38.2)"><path
       d="m 40.9,48 h 9.2 L 60.4,64.5 70.6,48 h 9.2 V 87 H 71.3 V 61.5 l -11,16.7 H 60.1 L 49.3,61.7 V 87 h -8.4 z"
       id="path8"
       inkscape:connector-curvature="0" /><path
       d="m 91.3,48 h 8.6 v 39 h -8.6 z"
       id="path10"
       inkscape:connector-curvature="0" /><path
       d="m 109.6,67.6 v -0.1 c 0,-11.1 8.4,-20.2 20.3,-20.2 7.4,0 11.8,2.5 15.4,6 l -5.5,6.3 c -3,-2.7 -6.1,-4.4 -10,-4.4 -6.6,0 -11.3,5.5 -11.3,12.1 v 0.1 c 0,6.7 4.6,12.3 11.3,12.3 4.5,0 7.2,-1.8 10.3,-4.6 l 5.5,5.5 c -4,4.3 -8.5,7 -16,7 -11.5,0.1 -20,-8.8 -20,-20 z"
       id="path12"
       inkscape:connector-curvature="0" /><path
       d="m 154.1,48 h 17.8 c 5,0 8.8,1.4 11.4,4 2.2,2.2 3.3,5.2 3.3,8.9 V 61 c 0,6.3 -3.4,10.3 -8.4,12.1 l 9.5,13.9 h -10 l -8.4,-12.5 h -6.7 V 87 H 154 V 48 Z m 17.3,18.9 c 4.2,0 6.6,-2.2 6.6,-5.5 v -0.1 c 0,-3.7 -2.6,-5.6 -6.7,-5.6 h -8.5 v 11.2 z"
       id="path14"
       inkscape:connector-curvature="0" /><path
       d="m 194.3,67.6 v -0.1 c 0,-11.1 8.7,-20.2 20.8,-20.2 12,0 20.7,9 20.7,20.1 v 0.1 c 0,11.1 -8.7,20.2 -20.8,20.2 -12,0 -20.7,-9 -20.7,-20.1 z m 32.5,0 v -0.1 c 0,-6.7 -4.9,-12.3 -11.8,-12.3 -6.9,0 -11.7,5.5 -11.7,12.1 v 0.1 c 0,6.7 4.9,12.3 11.8,12.3 6.9,0 11.7,-5.4 11.7,-12.1 z"
       id="path16"
       inkscape:connector-curvature="0" /><path
       d="m 245.1,48 h 9.2 L 264.6,64.5 274.8,48 h 9.2 v 39 h -8.5 V 61.5 l -11,16.7 h -0.2 L 253.4,61.7 V 87 H 245 V 48 Z"
       id="path18"
       inkscape:connector-curvature="0" /><path
       d="m 308.5,47.7 h 7.9 L 333.1,87 h -9 l -3.6,-8.7 H 304 l -3.6,8.7 h -8.7 z m 9,23 -5.2,-12.7 -5.2,12.6 h 10.4 z"
       id="path20"
       inkscape:connector-curvature="0" /><path
       d="M 344.8,55.9 H 333 V 48 h 32.3 v 7.9 H 353.4 V 87 h -8.6 z"
       id="path22"
       inkscape:connector-curvature="0" /><path
       d="m 381.9,47.7 h 7.9 L 406.5,87 h -9 l -3.6,-8.7 h -16.5 l -3.6,8.7 h -8.7 z m 9,23 -5.2,-12.7 -5.2,12.6 h 10.4 z"
       id="path24"
       inkscape:connector-curvature="0" /></g><polygon
     class="st2"
     points="518.9,67.5 498.1,88.3 506.7,96.8 536,67.5 506.7,38.2 498.1,46.8 "
     id="polygon28"
     style="fill:#ffcb00"
     transform="translate(-40.9,-38.2)" /><polygon
     class="st3"
     points="561.6,59 540.8,38.2 532.3,46.8 553,67.5 532.3,88.3 540.8,96.8 561.6,76 561.6,76 570.1,67.5 561.6,59 "
     id="polygon30"
     style="fill:#75be01"
     transform="translate(-40.9,-38.2)" /><rect
     x="-353.61844"
     y="-394.76694"
     transform="rotate(135.02026)"
     class="st4"
     width="12.10074"
     height="12.10074"
     id="rect32"
     style="fill:#32912e;stroke-width:1.00006115" /><polygon
     class="st5"
     points="484.7,67.5 464,88.3 472.5,96.8 493.3,76 501.8,67.5 472.5,38.2 464,46.8 "
     id="polygon34"
     style="fill:#e10057"
     transform="translate(-40.9,-38.2)" /><rect
     x="-305.16077"
     y="-346.61646"
     transform="rotate(134.99595)"
     class="st6"
     width="12.10074"
     height="12.10074"
     id="rect36"
     style="fill:#a70836;stroke-width:1.00006115" /><rect
     x="-329.25494"
     y="-370.76587"
     transform="rotate(134.99595)"
     class="st7"
     width="12.10074"
     height="12.10074"
     id="rect38"
     style="fill:#ff9d01;stroke-width:1.00006115" /></svg>