<?xml version="1.0" encoding="UTF-8" standalone="no"?>
<svg
   xmlns:dc="http://purl.org/dc/elements/1.1/"
   xmlns:cc="http://creativecommons.org/ns#"
   xmlns:rdf="http://www.w3.org/1999/02/22-rdf-syntax-ns#"
   xmlns:svg="http://www.w3.org/2000/svg"
   xmlns="http://www.w3.org/2000/svg"
   xmlns:sodipodi="http://sodipodi.sourceforge.net/DTD/sodipodi-0.dtd"
   xmlns:inkscape="http://www.inkscape.org/namespaces/inkscape"
   viewBox="0 0 1589.0938 592.07727"
   height="592.07727"
   width="1589.0939"
   xml:space="preserve"
   id="svg2"
   version="1.1"
   sodipodi:docname="junit4-usage.svg"
   inkscape:version="0.92.2 5c3e80d, 2017-08-06"><sodipodi:namedview
     pagecolor="#ffffff"
     bordercolor="#666666"
     borderopacity="1"
     objecttolerance="10"
     gridtolerance="10"
     guidetolerance="10"
     inkscape:pageopacity="0"
     inkscape:pageshadow="2"
     inkscape:window-width="1680"
     inkscape:window-height="1006"
     id="namedview1033"
     showgrid="false"
     fit-margin-top="0"
     fit-margin-left="0"
     fit-margin-right="0"
     fit-margin-bottom="0"
     inkscape:zoom="0.69575476"
     inkscape:cx="794.6962"
     inkscape:cy="296.37194"
     inkscape:window-x="0"
     inkscape:window-y="0"
     inkscape:window-maximized="1"
     inkscape:current-layer="svg2" /><metadata
     id="metadata8"><rdf:RDF><cc:Work
         rdf:about=""><dc:format>image/svg+xml</dc:format><dc:type
           rdf:resource="http://purl.org/dc/dcmitype/StillImage" /><dc:title></dc:title></cc:Work></rdf:RDF></metadata><defs
     id="defs6"><clipPath
       id="clipPath20"
       clipPathUnits="userSpaceOnUse"><path
         id="path18"
         d="M 0,516 H 1268 V 0 H 0 Z"
         inkscape:connector-curvature="0" /></clipPath><clipPath
       id="clipPath26"
       clipPathUnits="userSpaceOnUse"><path
         id="path24"
         d="M 0,0 H 1267.688 V 515.75 H 0 Z"
         inkscape:connector-curvature="0" /></clipPath></defs><path
     id="path30"
     style="fill:#ffffff;fill-opacity:1;fill-rule:nonzero;stroke:none;stroke-width:1.33333325"
     d="m 553.25481,246.42335 h 482.58439 v 99.2308 H 553.25481 Z"
     inkscape:connector-curvature="0" /><path
     id="path32"
     style="fill:#000000;fill-opacity:1;fill-rule:nonzero;stroke:none;stroke-width:1.33333325"
     d="m 701.16988,329.28428 c -1.6344,0 -2.9612,-0.21493 -3.98014,-0.64827 v -3.48693 c 1.19107,0.34427 2.36227,0.51667 3.51694,0.51667 1.34333,0 2.3292,-0.36587 2.95786,-1.09827 0.62867,-0.73227 0.94294,-1.8476 0.94294,-3.34627 v -32.97373 h 4.2912 v 32.66347 c 0,5.58173 -2.57414,8.37333 -7.7288,8.37333 z m 3.07693,-48.71173 c 0,-0.982 0.2416,-1.70107 0.72453,-2.1576 0.48307,-0.4564 1.08534,-0.68493 1.80987,-0.68493 0.68813,0 1.28373,0.2328 1.78333,0.69786 0.4996,0.46507 0.74774,1.18014 0.74774,2.14467 0,0.96493 -0.24814,1.684 -0.74774,2.158 -0.4996,0.4736 -1.0952,0.71053 -1.78333,0.71053 -0.72453,0 -1.3268,-0.23693 -1.80987,-0.71053 -0.48293,-0.474 -0.72453,-1.19307 -0.72453,-2.158 z m 17.78347,7.67493 v 18.3732 c 0,2.3084 0.526,4.03147 1.57813,5.16827 1.0488,1.1372 2.69653,1.70546 4.9364,1.70546 2.9644,0 5.1316,-0.80946 6.50133,-2.42893 1.36974,-1.61933 2.05454,-4.26387 2.05454,-7.93346 v -14.88454 h 4.2912 v 28.322 h -3.54347 l -0.61867,-3.79853 h -0.23493 c -0.8768,1.3956 -2.0976,2.4636 -3.65587,3.20426 -1.5584,0.7408 -3.3384,1.11134 -5.3368,1.11134 -3.44746,0 -6.02813,-0.81827 -7.742,-2.45494 -1.71373,-1.63666 -2.57066,-4.25533 -2.57066,-7.85586 v -18.52827 z m 47.8448,28.322 v -18.3212 c 0,-2.30866 -0.526,-4.03133 -1.57814,-5.1684 -1.0488,-1.13706 -2.6964,-1.7056 -4.93626,-1.7056 -2.96454,0 -5.13494,0.8012 -6.51454,2.40334 -1.3764,1.60213 -2.06786,4.24666 -2.06786,7.93306 v 14.8588 h -4.28787 v -28.322 h 3.4872 l 0.69813,3.87627 h 0.2084 c 0.8768,-1.39547 2.1108,-2.47653 3.6956,-3.2432 1.5848,-0.7664 3.3516,-1.14973 5.29707,-1.14973 3.4144,0 5.98173,0.82253 7.7056,2.46773 1.7204,1.6452 2.58387,4.2768 2.58387,7.89453 v 18.4764 z m 17.3964,0 h -4.2912 v -28.322 h 4.2912 z m -4.65187,-35.99693 c 0,-0.982 0.23827,-1.70107 0.72133,-2.1576 0.48307,-0.4564 1.0852,-0.68493 1.80974,-0.68493 0.68813,0 1.28373,0.2328 1.78333,0.69786 0.4996,0.46507 0.75107,1.18014 0.75107,2.14467 0,0.96493 -0.25147,1.684 -0.75107,2.158 -0.4996,0.4736 -1.0952,0.71053 -1.78333,0.71053 -0.72454,0 -1.32667,-0.23693 -1.80974,-0.71053 -0.48306,-0.474 -0.72133,-1.19307 -0.72133,-2.158 z m 22.91173,32.97373 c 0.76094,0 1.4888,-0.0561 2.1836,-0.168 0.6948,-0.11213 1.25734,-0.22827 1.68734,-0.34893 v 3.28186 c -0.4632,0.22387 -1.158,0.4092 -2.0512,0.55574 -0.9264,0.14613 -1.72054,0.2196 -2.4484,0.2196 -5.49214,0 -8.23827,-2.8856 -8.23827,-8.65694 v -16.84853 h -4.04307 v -2.06733 l 4.04307,-1.78293 1.81973,-6.0468 h 2.48147 v 6.56346 h 8.23827 v 3.3336 h -8.23827 v 16.6676 c 0,1.70547 0.39693,3.01493 1.22413,3.92787 0.794,0.91293 1.91894,1.36973 3.3416,1.36973 z m 8.9,0.28413 c 0,-1.1544 0.26467,-2.02853 0.794,-2.62293 0.52934,-0.5944 1.2904,-0.89147 2.24987,-0.89147 1.0256,0 1.78653,0.29707 2.34906,0.89147 0.5624,0.5944 0.82707,1.46853 0.82707,2.62293 0,1.11974 -0.26467,1.98134 -0.82707,2.58427 -0.5956,0.60267 -1.35653,0.9044 -2.34906,0.9044 -0.86027,0 -1.58813,-0.2712 -2.1836,-0.814 -0.56253,-0.5428 -0.86027,-1.43427 -0.86027,-2.67467 z m 11.28213,15.45387 c -1.65426,0 -2.97773,-0.21493 -4.00333,-0.64827 v -3.48693 c 1.19107,0.34427 2.38213,0.51667 3.54013,0.51667 1.32347,0 2.316,-0.36587 2.94454,-1.09827 0.62866,-0.73227 0.9596,-1.8476 0.9596,-3.34627 v -32.97373 h 4.268 v 32.66347 c 0,5.58173 -2.5476,8.37333 -7.70894,8.37333 z m 3.07694,-48.71173 c 0,-0.982 0.2316,-1.70107 0.72786,-2.1576 0.4632,-0.4564 1.0588,-0.68493 1.78667,-0.68493 0.6948,0 1.29027,0.2328 1.78653,0.69786 0.49627,0.46507 0.76107,1.18014 0.76107,2.14467 0,0.96493 -0.2648,1.684 -0.76107,2.158 -0.49626,0.4736 -1.09173,0.71053 -1.78653,0.71053 -0.72787,0 -1.32347,-0.23693 -1.78667,-0.71053 -0.49626,-0.474 -0.72786,-1.19307 -0.72786,-2.158 z m 31.16653,35.99693 -0.86027,-4.03107 h -0.19853 c -1.42267,1.77427 -2.81227,2.976 -4.23493,3.6048 -1.3896,0.6288 -3.14307,0.94334 -5.26054,0.94334 -2.81226,0 -4.99586,-0.72374 -6.584,-2.1708 -1.6212,-1.4472 -2.41533,-3.50587 -2.41533,-6.17614 0,-5.71933 4.59893,-8.71706 13.73053,-8.99266 l 4.79734,-0.15507 v -1.75706 c 0,-2.22254 -0.4632,-3.86347 -1.42267,-4.92294 -0.95947,-1.05946 -2.48133,-1.5892 -4.5988,-1.5892 -2.34907,0 -5.02907,0.7236 -8.00667,2.17067 l -1.32346,-3.28187 c 1.42266,-0.758 2.94466,-1.3524 4.59893,-1.78306 1.65427,-0.43067 3.3416,-0.646 4.99587,-0.646 3.37466,0 5.8892,0.74946 7.5104,2.24813 1.6212,1.4988 2.44826,3.90213 2.44826,7.20987 v 19.32906 z m -9.69413,-3.0232 c 2.68,0 4.7644,-0.73227 6.28626,-2.19667 1.522,-1.46426 2.28294,-3.5144 2.28294,-6.15026 v -2.55813 l -4.268,0.18093 c -3.40787,0.1204 -5.8892,0.65027 -7.37814,1.58893 -1.52186,0.93907 -2.2828,2.39907 -2.2828,4.3804 0,1.5504 0.4632,2.73053 1.42267,3.54027 0.9264,0.80973 2.24973,1.21453 3.93707,1.21453 z m 34.64053,-25.81546 c 1.2572,0 2.38213,0.1032 3.37467,0.30986 l -0.59547,3.97974 c -1.158,-0.2584 -2.1836,-0.3876 -3.11,-0.3876 -2.28293,0 -4.23493,0.93026 -5.85613,2.7908 -1.6212,1.86053 -2.4484,4.1776 -2.4484,6.95133 v 15.19453 h -4.30107 v -28.322 h 3.54013 l 0.49627,5.24587 h 0.19853 c 1.05867,-1.84333 2.316,-3.26467 3.8048,-4.26387 1.4888,-0.9992 3.11,-1.49866 4.89667,-1.49866 z"
     inkscape:connector-curvature="0" /><path
     inkscape:connector-curvature="0"
     d="m 553.25473,246.42326 h 482.58437 v 99.23076 H 553.25473 Z"
     style="fill:none;stroke:#000000;stroke-width:3.30811858;stroke-linecap:butt;stroke-linejoin:miter;stroke-miterlimit:1.45000005;stroke-dasharray:none;stroke-opacity:1"
     id="path36" /><path
     id="path38"
     style="fill:#ffffff;fill-opacity:1;fill-rule:nonzero;stroke:none;stroke-width:1.33333325"
     d="m 744.68721,517.65408 c 0,40.18846 -69.51586,72.76923 -155.27,72.76923 -85.75426,0 -155.26906,-32.58077 -155.26906,-72.76923 0,-40.18847 69.5148,-72.76927 155.26906,-72.76927 85.75414,0 155.27,32.5808 155.27,72.76927 z"
     inkscape:connector-curvature="0" /><path
     id="path40"
     style="fill:#000000;fill-opacity:1;fill-rule:nonzero;stroke:none;stroke-width:1.33333325"
     d="m 540.58962,538.18493 v -37.78052 h 4.39373 v 37.78052 z m 44.92346,-19.25077 c 0,6.235 -1.69067,11.00469 -5.07867,14.30246 -3.38453,3.29776 -8.25813,4.94831 -14.61706,4.94831 h -10.46827 v -37.78052 h 11.57987 c 5.876,0 10.44173,1.62747 13.70066,4.88547 3.2556,3.25482 4.88347,7.80289 4.88347,13.64428 z m -4.65187,0.15546 c 0,-4.92846 -1.23733,-8.63969 -3.7088,-11.1403 -2.47146,-2.49731 -6.14733,-3.74438 -11.02413,-3.74438 h -6.38547 v 30.18276 h 5.34987 c 5.2408,0 9.178,-1.29 11.81493,-3.86338 2.6368,-2.5767 3.9536,-6.38716 3.9536,-11.4347 z m 34.14427,19.09531 h -21.0656 v -37.78052 h 21.0656 v 3.90307 h -16.67173 v 12.17237 h 15.66586 v 3.87331 h -15.66586 v 13.90554 h 16.67173 z m 26.0052,-7.72677 c 0,2.63622 -0.98267,4.67046 -2.948,6.09938 -1.9652,1.42892 -4.72133,2.14339 -8.27133,2.14339 -3.7552,0 -6.68654,-0.59208 -8.78747,-1.78285 v -3.97915 c 1.35973,0.688 2.82213,1.23045 4.38053,1.62739 1.55827,0.39692 3.0636,0.59538 4.50947,0.59538 2.23987,0 3.9636,-0.35724 5.17133,-1.07169 1.20427,-0.71447 1.80974,-1.806 1.80974,-3.27131 0,-1.10146 -0.47974,-2.04416 -1.43587,-2.82808 -0.95627,-0.78392 -2.82227,-1.71008 -5.5948,-2.77846 -2.63693,-0.98239 -4.5128,-1.83908 -5.6212,-2.57008 -1.11173,-0.73431 -1.9388,-1.56454 -2.48147,-2.494 -0.54586,-0.92946 -0.8172,-2.04084 -0.8172,-3.33415 0,-2.30877 0.9396,-4.13131 2.81894,-5.46431 1.8792,-1.3363 4.45333,-2.00446 7.72866,-2.00446 3.05054,0 6.0316,0.62185 8.94307,1.86222 l -1.5252,3.48632 c -2.84213,-1.17093 -5.41947,-1.75638 -7.7288,-1.75638 -2.03147,0 -3.56667,0.32084 -4.59893,0.95592 -1.03547,0.63838 -1.5516,1.51822 -1.5516,2.63622 0,0.75747 0.19186,1.40578 0.58226,1.93831 0.38707,0.53585 1.0124,1.04193 1.87267,1.52485 0.86013,0.48292 2.5144,1.18084 4.9628,2.09376 3.36147,1.22386 5.63107,2.45432 6.81227,3.6947 1.17786,1.24038 1.77013,2.7983 1.77013,4.67708 z"
     inkscape:connector-curvature="0" /><path
     inkscape:connector-curvature="0"
     d="m 744.68716,517.654 c 0,40.18846 -69.51585,72.76922 -155.27003,72.76922 -85.75419,0 -155.26904,-32.58076 -155.26904,-72.76922 0,-40.18846 69.51485,-72.76922 155.26904,-72.76922 85.75418,0 155.27003,32.58076 155.27003,72.76922 z"
     style="fill:none;stroke:#000000;stroke-width:3.30811858;stroke-linecap:butt;stroke-linejoin:miter;stroke-miterlimit:1.45000005;stroke-dasharray:none;stroke-opacity:1"
     id="path44" /><path
     id="path46"
     style="fill:#ffffff;fill-opacity:1;fill-rule:nonzero;stroke:none;stroke-width:1.33333325"
     d="m 1154.4836,517.65408 c 0,40.18846 -69.5126,72.76923 -155.26997,72.76923 -85.75749,0 -155.27002,-32.58077 -155.27002,-72.76923 0,-40.18847 69.51253,-72.76927 155.27002,-72.76927 85.75737,0 155.26997,32.5808 155.26997,72.76927 z"
     inkscape:connector-curvature="0" /><path
     id="path48"
     style="fill:#000000;fill-opacity:1;fill-rule:nonzero;stroke:none;stroke-width:1.33333325"
     d="m 868.59227,500.40441 h 10.68654 c 4.99586,0 8.63533,0.75093 10.852,2.24933 2.24986,1.4984 3.3748,3.86664 3.3748,7.10488 0,2.23931 -0.62867,4.08831 -1.88587,5.5437 -1.22427,1.45538 -3.04387,2.39806 -5.4592,2.83138 v 0.258 c 5.75693,0.98238 8.60227,3.99568 8.60227,9.04323 0,3.37715 -1.12494,6.01339 -3.40787,7.90869 -2.2828,1.89531 -5.49213,2.84131 -9.59467,2.84131 h -13.168 z m 4.40027,16.17797 h 7.21267 c 3.11,0 5.35986,-0.48622 6.7164,-1.462 1.3564,-0.97245 2.0512,-2.61306 2.0512,-4.92184 0,-2.12022 -0.76094,-3.64838 -2.2828,-4.58773 -1.522,-0.93613 -3.9372,-1.40587 -7.24574,-1.40587 h -6.45173 z m 0,3.72116 v 14.13378 h 7.8744 c 3.04387,0 5.35987,-0.58878 6.88173,-1.76962 1.55507,-1.18085 2.316,-3.02654 2.316,-5.54369 0,-2.34185 -0.794,-4.06516 -2.34906,-5.16663 -1.58814,-1.10476 -4.00334,-1.65384 -7.21267,-1.65384 z m 33.284,-10.43908 v 18.37092 c 0,2.30878 0.52933,4.03208 1.58813,5.16994 1.0256,1.13453 2.67987,1.70345 4.92974,1.70345 2.94453,0 5.12826,-0.80707 6.48466,-2.42784 1.3896,-1.62077 2.05134,-4.26361 2.05134,-7.93185 v -14.88462 h 4.30106 v 28.32047 h -3.54013 l -0.62853,-3.79723 h -0.2316 c -0.86027,1.39254 -2.0844,2.46092 -3.63947,3.20184 -1.55493,0.74092 -3.3416,1.11139 -5.35987,1.11139 -3.4408,0 -6.02146,-0.817 -7.742,-2.45431 -1.68733,-1.6373 -2.54746,-4.25369 -2.54746,-7.85577 v -18.52639 z m 32.75453,28.32047 h -4.30106 v -28.32047 h 4.30106 z m -4.66493,-35.99759 c 0,-0.9824 0.2316,-1.70013 0.72787,-2.15666 0.49626,-0.4564 1.09173,-0.68467 1.8196,-0.68467 0.6948,0 1.2904,0.23147 1.78666,0.69787 0.49627,0.46306 0.72787,1.18093 0.72787,2.14346 0,0.96587 -0.2316,1.6836 -0.72787,2.15987 -0.49626,0.47307 -1.09186,0.70787 -1.78666,0.70787 -0.72787,0 -1.32334,-0.2348 -1.8196,-0.70787 -0.49627,-0.47627 -0.72787,-1.194 -0.72787,-2.15987 z m 18.03149,35.99759 h -4.26802 v -40.20825 h 4.26802 z m 28.3873,-3.79723 h -0.2316 c -1.9851,2.87438 -4.9297,4.31323 -8.8668,4.31323 -3.7056,0 -6.6172,-1.26685 -8.6684,-3.79723 -2.0513,-2.53369 -3.0769,-6.13246 -3.0769,-10.80293 0,-4.66715 1.0256,-8.29569 3.11,-10.879 2.0513,-2.58331 4.9297,-3.87661 8.6353,-3.87661 3.8379,0 6.7824,1.39585 8.8337,4.18754 h 0.331 l -0.1986,-2.04085 -0.099,-1.99123 v -11.52394 h 4.3012 v 40.20825 h -3.5071 z m -8.5691,0.72107 c 2.9115,0 5.062,-0.79715 6.3524,-2.38815 1.3234,-1.5943 1.9851,-4.16438 1.9851,-7.71354 v -0.90631 c 0,-4.01223 -0.6617,-6.87669 -1.9851,-8.59007 -1.3565,-1.71669 -3.474,-2.57338 -6.4185,-2.57338 -2.5145,0 -4.4335,0.97906 -5.7569,2.93392 -1.3566,1.95484 -2.0183,4.71677 -2.0183,8.28246 0,3.61862 0.6617,6.34746 1.9852,8.18984 1.3233,1.8457 3.2755,2.76523 5.8561,2.76523 z m 47.77537,3.07616 h -4.4003 v -33.87745 h -11.9769 v -3.90307 h 28.321 v 3.90307 h -11.9438 z m 41.4561,-14.18669 c 0,4.61753 -1.158,8.22292 -3.5071,10.81614 -2.316,2.58994 -5.5253,3.88655 -9.6278,3.88655 -2.5476,0 -4.7975,-0.59208 -6.7495,-1.78285 -1.952,-1.18746 -3.474,-2.89423 -4.5327,-5.117 -1.0918,-2.22276 -1.6212,-4.82262 -1.6212,-7.80284 0,-4.61754 1.158,-8.213 3.474,-10.7897 2.316,-2.57338 5.4922,-3.86338 9.5948,-3.86338 3.9702,0 7.1134,1.31977 9.4624,3.956 2.3491,2.63292 3.5071,6.20192 3.5071,10.69708 z m -21.6048,0 c 0,3.61861 0.7279,6.37392 2.1836,8.26922 1.4557,1.89531 3.5732,2.84131 6.3855,2.84131 2.8122,0 4.9297,-0.94269 6.3854,-2.82807 1.4559,-1.88538 2.1838,-4.64732 2.1838,-8.28246 0,-3.60208 -0.7279,-6.33423 -2.1838,-8.20308 -1.4557,-1.87215 -3.6062,-2.80492 -6.4516,-2.80492 -2.7792,0 -4.8966,0.91953 -6.3524,2.76522 -1.4226,1.84239 -2.1505,4.59108 -2.1505,8.24278 z m 53.5653,0 c 0,4.61753 -1.158,8.22292 -3.474,10.81614 -2.349,2.58994 -5.5584,3.88655 -9.6609,3.88655 -2.5145,0 -4.7643,-0.59208 -6.7495,-1.78285 -1.952,-1.18746 -3.474,-2.89423 -4.5326,-5.117 -1.0588,-2.22276 -1.6212,-4.82262 -1.6212,-7.80284 0,-4.61754 1.158,-8.213 3.474,-10.7897 2.316,-2.57338 5.5252,-3.86338 9.6278,-3.86338 3.9703,0 7.1134,1.31977 9.4294,3.956 2.349,2.63292 3.507,6.20192 3.507,10.69708 z m -21.5717,0 c 0,3.61861 0.7279,6.37392 2.1505,8.26922 1.4558,1.89531 3.6064,2.84131 6.3855,2.84131 2.8123,0 4.9629,-0.94269 6.4187,-2.82807 1.4557,-1.88538 2.1836,-4.64732 2.1836,-8.28246 0,-3.60208 -0.7279,-6.33423 -2.1836,-8.20308 -1.4558,-1.87215 -3.6064,-2.80492 -6.4518,-2.80492 -2.8122,0 -4.9297,0.91953 -6.3524,2.76522 -1.4557,1.84239 -2.1505,4.59108 -2.1505,8.24278 z m 33.3832,14.18669 h -4.268 v -40.20825 h 4.268 z m 27.3948,-7.72677 c 0,2.63622 -0.9925,4.67046 -2.9447,6.09938 -1.985,1.42892 -4.7312,2.14339 -8.2713,2.14339 -3.7717,0 -6.7163,-0.59208 -8.8007,-1.78285 v -3.97915 c 1.3564,0.688 2.8123,1.23045 4.3672,1.62739 1.5551,0.39692 3.077,0.59538 4.5328,0.59538 2.2167,0 3.9371,-0.35724 5.1614,-1.07169 1.191,-0.71447 1.8196,-1.806 1.8196,-3.27131 0,-1.10146 -0.4963,-2.04416 -1.4558,-2.82808 -0.9594,-0.78392 -2.8122,-1.71008 -5.5914,-2.77846 -2.6468,-0.98239 -4.4996,-1.83908 -5.6246,-2.57008 -1.0917,-0.73431 -1.9189,-1.56454 -2.4813,-2.494 -0.5295,-0.92946 -0.7941,-2.04084 -0.7941,-3.33415 0,-2.30877 0.9264,-4.13131 2.8122,-5.46431 1.8528,-1.3363 4.4335,-2.00446 7.709,-2.00446 3.0438,0 6.0546,0.62185 8.9661,1.86222 l -1.5219,3.48632 c -2.8453,-1.17093 -5.426,-1.75638 -7.742,-1.75638 -2.0513,0 -3.5732,0.32084 -4.5989,0.95592 -1.0256,0.63838 -1.5549,1.51822 -1.5549,2.63622 0,0.75747 0.1985,1.40578 0.5954,1.93831 0.364,0.53585 0.9926,1.04193 1.8528,1.52485 0.8603,0.48292 2.5146,1.18084 4.9628,2.09376 3.3748,1.22386 5.6246,2.45432 6.8156,3.6947 1.1911,1.24038 1.7867,2.7983 1.7867,4.67708 z"
     inkscape:connector-curvature="0" /><path
     inkscape:connector-curvature="0"
     d="m 1154.4836,517.654 c 0,40.18846 -69.5126,72.76922 -155.27007,72.76922 -85.75747,0 -155.27001,-32.58076 -155.27001,-72.76922 0,-40.18846 69.51254,-72.76922 155.27001,-72.76922 85.75747,0 155.27007,32.58076 155.27007,72.76922 z"
     style="fill:none;stroke:#000000;stroke-width:3.30811858;stroke-linecap:butt;stroke-linejoin:miter;stroke-miterlimit:1.45000005;stroke-dasharray:none;stroke-opacity:1"
     id="path52" /><path
     id="path54"
     style="fill:#ffffff;fill-opacity:1;fill-rule:nonzero;stroke:none;stroke-width:1.33333325"
     d="m 1022.6049,74.423346 c 0,40.188404 -102.10156,72.769204 -228.05796,72.769204 -125.95293,0 -228.05799,-32.5808 -228.05799,-72.769204 0,-40.188528 102.10506,-72.7691937 228.05799,-72.7691937 125.9564,0 228.05796,32.5806657 228.05796,72.7691937 z"
     inkscape:connector-curvature="0" /><path
     id="path56"
     style="fill:#000000;fill-opacity:1;fill-rule:nonzero;stroke:none;stroke-width:1.33333325"
     d="m 655.26388,104.90375 c -1.61787,0 -2.89507,-0.2316 -3.82467,-0.698 v -3.7476 c 1.22414,0.344 2.49787,0.516 3.82467,0.516 1.7072,0 3.00413,-0.516 3.8908,-1.548004 0.88667,-1.03533 1.33,-2.52373 1.33,-4.472 v -37.7804 h 4.39707 v 37.41987 c 0,3.27133 -0.82707,5.808274 -2.48134,7.607734 -1.65426,1.80267 -4.0332,2.7024 -7.13653,2.7024 z m 48.18226,-47.730004 v 24.44707 c 0,4.30667 -1.30026,7.6904 -3.904,10.15467 -2.60053,2.46426 -6.17706,3.69466 -10.7264,3.69466 -4.5492,0 -8.06946,-1.2404 -10.55746,-3.7212 -2.49133,-2.48066 -3.73547,-5.89093 -3.73547,-10.23066 v -24.34454 h 4.39387 v 24.65214 c 0,3.15226 0.86013,5.57346 2.58387,7.26373 1.72373,1.68693 4.25479,2.5304 7.59973,2.5304 3.18613,0 5.6444,-0.8468 7.3648,-2.5436 1.72386,-1.69693 2.58733,-4.13133 2.58733,-7.30013 v -24.60254 z m 28.74134,37.7804 v -18.32133 c 0,-2.30867 -0.526,-4.032 -1.5748,-5.16987 -1.05214,-1.13453 -2.69654,-1.70346 -4.9364,-1.70346 -2.9644,0 -5.1348,0.8004 -6.51454,2.40133 -1.3796,1.60427 -2.06786,4.24707 -2.06786,7.9352 v 14.85813 h -4.2912 v -28.3204 h 3.49053 l 0.69813,3.8732 h 0.2052 c 0.88,-1.39253 2.1108,-2.47413 3.6956,-3.24146 1.5848,-0.76734 3.3516,-1.15107 5.30027,-1.15107 3.41107,0 5.97853,0.8236 7.70227,2.46747 1.72373,1.64733 2.584,4.27693 2.584,7.89546 v 18.4768 z m 17.3964,0 h -4.2912 v -28.3204 h 4.2912 z m -4.65187,-35.9976 c 0,-0.9824 0.2416,-1.70013 0.72453,-2.15666 0.47974,-0.4564 1.0852,-0.68467 1.80987,-0.68467 0.68813,0 1.28373,0.2316 1.7832,0.698 0.4996,0.46307 0.74773,1.1808 0.74773,2.14333 0,0.96587 -0.24813,1.6836 -0.74773,2.15987 -0.49947,0.47307 -1.09507,0.70787 -1.7832,0.70787 -0.72467,0 -1.33013,-0.2348 -1.80987,-0.70787 -0.48293,-0.47627 -0.72453,-1.194 -0.72453,-2.15987 z m 22.90173,32.9744 c 0.75774,0 1.48894,-0.0563 2.19694,-0.16866 0.70466,-0.11254 1.2672,-0.22827 1.68066,-0.34734 v 3.2812 c -0.4664,0.22494 -1.15133,0.41014 -2.05453,0.55574 -0.90653,0.14546 -1.72053,0.21826 -2.44507,0.21826 -5.47893,0 -8.2184,-2.88426 -8.2184,-8.65626 v -16.84934 h -4.0596 v -2.06733 l 4.0596,-1.7828 1.80974,-6.04653 h 2.48146 v 6.56586 h 8.2184 v 3.3308 h -8.2184 v 16.66747 c 0,1.7068 0.4036,3.01667 1.21427,3.92947 0.81053,0.91293 1.92227,1.36946 3.33493,1.36946 z m 47.95414,-5.65946 h -5.62454 v 8.68266 h -4.10266 v -8.68266 h -18.3756 v -3.7476 l 17.94546,-25.5552 h 4.5328 v 25.39973 h 5.62454 z m -9.7272,-3.90307 v -12.55933 c 0,-2.46094 0.0993,-5.24267 0.26466,-8.34534 h -0.19853 c -0.82707,1.65387 -1.62107,3.0232 -2.34907,4.10814 l -11.80146,16.79653 z m 41.35679,12.58573 h -4.40026 v -33.87733 h -11.94387 v -3.90307 h 28.32107 v 3.90307 h -11.97694 z m 28.98294,0.516 c -4.20187,0 -7.5104,-1.27346 -9.92574,-3.82373 -2.4152,-2.55013 -3.63933,-6.08947 -3.63933,-10.62093 0,-4.56467 1.12493,-8.18987 3.37467,-10.87907 2.24986,-2.68573 5.29373,-4.032 9.06546,-4.032 3.5732,0 6.3524,1.1676 8.4368,3.5028 2.05134,2.3352 3.11,5.41467 3.11,9.2384 v 2.71227 h -19.5204 c 0.0661,3.32426 0.9264,5.848 2.51454,7.57133 1.588,1.72333 3.83786,2.58333 6.74933,2.58333 3.04387,0 6.05467,-0.63506 9.0324,-1.91186 v 3.82706 c -1.522,0.65494 -2.94467,1.1212 -4.30107,1.40574 -1.35653,0.2844 -2.97773,0.42666 -4.89666,0.42666 z m -1.158,-25.7636 c -2.28294,0 -4.10267,0.74094 -5.45907,2.2228 -1.35653,1.48187 -2.15067,3.53254 -2.38227,6.14894 h 14.8224 c 0,-2.7024 -0.62866,-4.77627 -1.81973,-6.21187 -1.22413,-1.4388 -2.94467,-2.15987 -5.16133,-2.15987 z m 37.15493,17.5208 c 0,2.63627 -0.99253,4.67054 -2.94453,6.09947 -1.95214,1.42893 -4.73134,2.14333 -8.27147,2.14333 -3.73867,0 -6.6832,-0.592 -8.80067,-1.7828 v -3.9792 c 1.3896,0.688 2.84534,1.23054 4.4004,1.62734 1.55494,0.39693 3.04387,0.59546 4.4996,0.59546 2.24974,0 3.97027,-0.3572 5.16134,-1.07173 1.22413,-0.7144 1.8196,-1.806 1.8196,-3.27133 0,-1.10147 -0.4632,-2.04414 -1.42267,-2.828 -0.95947,-0.784 -2.84533,-1.71014 -5.59133,-2.77854 -2.64694,-0.9824 -4.5328,-1.83906 -5.62454,-2.57 -1.12493,-0.7344 -1.95213,-1.56453 -2.48146,-2.494 -0.5624,-0.92946 -0.82707,-2.04093 -0.82707,-3.33413 0,-2.3088 0.92627,-4.13133 2.81227,-5.4644 1.88586,-1.33627 4.46653,-2.0044 7.74186,-2.0044 3.04387,0 6.0216,0.62187 8.9332,1.86227 l -1.522,3.48626 c -2.84533,-1.17093 -5.426,-1.7564 -7.742,-1.7564 -2.01826,0 -3.54013,0.3208 -4.59893,0.95587 -1.0256,0.6384 -1.52187,1.51827 -1.52187,2.63627 0,0.75746 0.16547,1.40573 0.5624,1.93826 0.39707,0.53587 1.02574,1.042 1.88587,1.52494 0.86027,0.48293 2.51453,1.1808 4.96293,2.09373 3.3416,1.22387 5.62454,2.45427 6.8156,3.69467 1.158,1.2404 1.75347,2.7984 1.75347,4.67706 z m 16.14573,4.7036 c 0.76094,0 1.4888,-0.0563 2.1836,-0.16866 0.6948,-0.11254 1.2572,-0.22827 1.68734,-0.34734 v 3.2812 c -0.4632,0.22494 -1.158,0.41014 -2.0512,0.55574 -0.9264,0.14546 -1.72054,0.21826 -2.4484,0.21826 -5.49214,0 -8.23827,-2.88426 -8.23827,-8.65626 v -16.84934 h -4.0364 v -2.06733 l 4.0364,-1.7828 1.81973,-6.04653 h 2.48134 v 6.56586 h 8.23826 v 3.3308 h -8.23826 v 16.66747 c 0,1.7068 0.39706,3.01667 1.22426,3.92947 0.794,0.91293 1.91894,1.36946 3.3416,1.36946 z"
     inkscape:connector-curvature="0" /><path
     inkscape:connector-curvature="0"
     d="m 1022.6049,74.423276 c 0,40.188464 -102.10164,72.769234 -228.05796,72.769234 -125.95301,0 -228.05803,-32.58077 -228.05803,-72.769234 0,-40.188452 102.10502,-72.7692167 228.05803,-72.7692167 125.95632,0 228.05796,32.5807647 228.05796,72.7692167 z"
     style="fill:none;stroke:#000000;stroke-width:3.30811858;stroke-linecap:butt;stroke-linejoin:miter;stroke-miterlimit:1.45000005;stroke-dasharray:none;stroke-opacity:1"
     id="path60" /><path
     id="path62"
     style="fill:#ffffff;fill-opacity:1;fill-rule:nonzero;stroke:none;stroke-width:1.33333325"
     d="m 1587.4401,296.03868 c 0,55.71813 -92.4747,100.88467 -206.5533,100.88467 -114.0782,0 -206.5519,-45.16654 -206.5519,-100.88467 0,-55.718 92.4737,-100.88453 206.5519,-100.88453 114.0786,0 206.5533,45.16653 206.5533,100.88453 z"
     inkscape:connector-curvature="0" /><path
     id="path64"
     style="fill:#000000;fill-opacity:1;fill-rule:nonzero;stroke:none;stroke-width:1.33333325"
     d="m 1301.9454,280.53388 h -4.4 v -33.87906 h -11.9773 v -3.89974 h 28.3213 v 3.89974 h -11.944 z m 28.9494,0.51707 c -4.168,0 -7.4774,-1.2752 -9.892,-3.8248 -2.416,-2.54947 -3.64,-6.08973 -3.64,-10.62067 0,-4.5652 1.1253,-8.19173 3.3746,-10.88093 2.2507,-2.68587 5.2614,-4.0288 9.0654,-4.0288 3.5413,0 6.3533,1.1676 8.404,3.4996 2.0853,2.3352 3.1106,5.41493 3.1106,9.23933 v 2.71334 h -19.5213 c 0.1,3.32493 0.9267,5.84893 2.5147,7.5716 1.6213,1.72266 3.872,2.584 6.7493,2.584 3.044,0 6.0547,-0.63747 9.0333,-1.91214 v 3.82467 c -1.4893,0.65453 -2.9453,1.12387 -4.3013,1.408 -1.3573,0.28453 -2.9773,0.4268 -4.8973,0.4268 z m -1.1574,-25.76307 c -2.2826,0 -4.0693,0.74094 -5.4266,2.2228 -1.356,1.47854 -2.1507,3.53027 -2.4147,6.14867 h 14.8227 c 0,-2.70467 -0.596,-4.776 -1.82,-6.2148 -1.1907,-1.4388 -2.912,-2.15667 -5.1614,-2.15667 z m 37.188,17.5196 c 0,2.6356 -0.9933,4.6684 -2.9453,6.0984 -1.984,1.42987 -4.7307,2.14507 -8.2707,2.14507 -3.772,0 -6.716,-0.5944 -8.8013,-1.7832 v -3.97947 c 1.3573,0.68894 2.8133,1.23174 4.368,1.628 1.5547,0.39587 3.0773,0.594 4.532,0.594 2.2173,0 3.9373,-0.3572 5.1613,-1.07226 1.192,-0.7148 1.82,-1.80467 1.82,-3.26907 0,-1.1024 -0.496,-2.04573 -1.456,-2.82933 -0.9586,-0.784 -2.812,-1.71014 -5.5906,-2.77814 -2.6467,-0.98173 -4.5,-1.83906 -5.6254,-2.57106 -1.092,-0.7324 -1.9186,-1.5636 -2.4813,-2.49374 -0.5293,-0.9304 -0.7933,-2.04146 -0.7933,-3.33213 0,-2.3088 0.9266,-4.13133 2.812,-5.4676 1.8853,-1.33307 4.4333,-2.0012 7.7093,-2.0012 3.076,0 6.0547,0.61853 8.9653,1.85893 l -1.5213,3.4896 c -2.8453,-1.17093 -5.4267,-1.7564 -7.7427,-1.7564 -2.0506,0 -3.5733,0.3176 -4.5986,0.956 -1.0254,0.63507 -1.5547,1.51494 -1.5547,2.63627 0,0.75733 0.1987,1.40267 0.596,1.93693 0.3627,0.53387 0.992,1.04227 1.852,1.52454 0.86,0.48226 2.5147,1.18013 4.9627,2.09306 3.3746,1.2232 5.6253,2.45494 6.816,3.69534 1.1906,1.2404 1.7866,2.7996 1.7866,4.67746 z m 16.112,4.7028 c 0.7614,0 1.4894,-0.0559 2.2174,-0.1676 0.6946,-0.11213 1.2573,-0.22866 1.6546,-0.34906 v 3.282 c -0.464,0.22386 -1.1253,0.40906 -2.052,0.55533 -0.8933,0.14653 -1.72,0.22 -2.448,0.22 -5.4586,0 -8.2053,-2.88573 -8.2053,-8.65693 v -16.84814 h -4.0693 v -2.0672 l 4.0693,-1.78293 1.82,-6.0464 h 2.4813 v 6.5624 h 8.2054 v 3.33413 h -8.2054 v 16.6672 c 0,1.70547 0.3974,3.01467 1.1907,3.92787 0.8267,0.91293 1.9187,1.36933 3.3413,1.36933 z m 13.8307,3.0236 h -4.3013 v -28.32213 h 4.3013 z m -4.6653,-35.996 c 0,-0.9824 0.264,-1.70346 0.728,-2.15986 0.496,-0.45654 1.092,-0.68467 1.82,-0.68467 0.6946,0 1.2893,0.2348 1.7853,0.69787 0.4973,0.4664 0.7613,1.18093 0.7613,2.14666 0,0.96254 -0.264,1.6836 -0.7613,2.15667 -0.496,0.47293 -1.0907,0.7112 -1.7853,0.7112 -0.728,0 -1.324,-0.23827 -1.82,-0.7112 -0.464,-0.47307 -0.728,-1.19413 -0.728,-2.15667 z m 33.152,35.996 v -18.3216 c 0,-2.3084 -0.5294,-4.03013 -1.5894,-5.168 -1.0253,-1.13786 -2.6786,-1.7068 -4.9293,-1.7068 -2.944,0 -5.128,0.80387 -6.5173,2.4048 -1.3574,1.60094 -2.052,4.246 -2.052,7.9328 v 14.8588 h -4.3 v -28.32213 h 3.5066 l 0.6947,3.87667 h 0.1987 c 0.86,-1.39587 2.1173,-2.47747 3.7053,-3.24494 1.588,-0.764 3.3413,-1.14773 5.2933,-1.14773 3.408,0 5.956,0.8204 7.7094,2.4676 1.72,1.64387 2.58,4.2768 2.58,7.89413 v 18.4764 z m 36.2946,-28.32213 v 2.7124 l -5.2613,0.62173 c 0.496,0.602 0.9267,1.38934 1.2907,2.36507 0.3973,0.9724 0.596,2.07053 0.596,3.29373 0,2.7736 -0.96,4.98734 -2.8454,6.6412 -1.92,1.65387 -4.5,2.4808 -7.8093,2.4808 -0.86,0 -1.6533,-0.0691 -2.3813,-0.20666 -1.82,0.9644 -2.7467,2.17906 -2.7467,3.64333 0,0.77533 0.3307,1.34827 0.96,1.71867 0.628,0.37013 1.72,0.55546 3.2747,0.55546 h 5.0293 c 3.044,0 5.4267,0.64587 7.048,1.93827 1.6533,1.292 2.4813,3.16973 2.4813,5.63333 0,3.13534 -1.2573,5.52587 -3.772,7.17094 -2.5146,1.6452 -6.1866,2.46786 -11.0173,2.46786 -3.7053,0 -6.5507,-0.6892 -8.5693,-2.06733 -2.0187,-1.37827 -3.0107,-3.32507 -3.0107,-5.84027 0,-1.72266 0.5627,-3.2128 1.6547,-4.47026 1.0906,-1.2576 2.6466,-2.11067 4.664,-2.55854 -0.728,-0.3272 -1.356,-0.8356 -1.8187,-1.52453 -0.4973,-0.68907 -0.7613,-1.49013 -0.7613,-2.40333 0,-1.03374 0.2973,-1.938 0.8266,-2.71334 0.5627,-0.77533 1.4227,-1.52453 2.6134,-2.24826 -1.4547,-0.60294 -2.6467,-1.628 -3.572,-3.0752 -0.9267,-1.44707 -1.3907,-3.10094 -1.3907,-4.96147 0,-3.10067 0.9267,-5.49213 2.8133,-7.1724 1.852,-1.67707 4.4987,-2.5172 7.9067,-2.5172 1.456,0 2.812,0.172 4.004,0.516 z m -22.5973,33.07693 c 0,1.5332 0.6613,2.69614 1.952,3.48867 1.2893,0.7924 3.1427,1.18867 5.5573,1.18867 3.5734,0 6.2534,-0.5384 7.9747,-1.61507 1.7533,-1.07667 2.6133,-2.53667 2.6133,-4.38 0,-1.53347 -0.4626,-2.5972 -1.4226,-3.1916 -0.96,-0.5944 -2.7467,-0.89147 -5.36,-0.89147 h -5.128 c -1.952,0 -3.4747,0.46507 -4.5667,1.3956 -1.0907,0.93 -1.62,2.26534 -1.62,4.0052 z m 2.316,-24.00653 c 0,1.98093 0.5613,3.48 1.6867,4.4964 1.1253,1.01653 2.68,1.52453 4.6986,1.52453 4.168,0 6.2534,-2.0328 6.2534,-6.0984 0,-4.25626 -2.1187,-6.3832 -6.3534,-6.3832 -2.0173,0 -3.5733,0.54254 -4.632,1.62747 -1.092,1.08493 -1.6533,2.69573 -1.6533,4.8332 z"
     inkscape:connector-curvature="0" /><path
     id="path66"
     style="fill:#000000;fill-opacity:1;fill-rule:nonzero;stroke:none;stroke-width:1.33333325"
     d="m 1250.5306,352.60681 h -4.3673 v -37.78146 h 21.0424 v 3.90213 h -16.6751 v 13.8248 h 15.6826 v 3.90307 h -15.6826 z m 35.2028,-28.8404 c 1.2907,0 2.416,0.1036 3.408,0.31027 l -0.596,3.98053 c -1.1906,-0.258 -2.216,-0.3904 -3.1093,-0.3904 -2.2827,0 -4.2352,0.9328 -5.8895,2.79174 -1.6212,1.86226 -2.4153,4.1776 -2.4153,6.9528 v 15.19546 h -4.3011 v -28.32333 h 3.5402 l 0.4962,5.2456 h 0.1986 c 1.0588,-1.8424 2.316,-3.26467 3.8048,-4.264 1.4889,-0.9988 3.1101,-1.49867 4.8634,-1.49867 z m 26.1374,28.8404 -0.86,-4.032 h -0.1987 c -1.4227,1.77294 -2.8453,2.97694 -4.2347,3.60534 -1.4226,0.62853 -3.176,0.94266 -5.26,0.94266 -2.8133,0 -5.0293,-0.7244 -6.6173,-2.16986 -1.588,-1.44867 -2.3827,-3.50614 -2.3827,-6.17867 0,-5.71907 4.5654,-8.71587 13.7307,-8.9904 l 4.7973,-0.15547 v -1.75626 c 0,-2.2228 -0.4626,-3.86347 -1.4226,-4.9252 -0.96,-1.05854 -2.4814,-1.58774 -4.5987,-1.58774 -2.3493,0 -5.0293,0.7244 -8.0067,2.16987 l -1.324,-3.2812 c 1.3894,-0.7588 2.912,-1.35293 4.5987,-1.7836 1.6547,-0.43093 3.3093,-0.64627 4.996,-0.64627 3.3747,0 5.8893,0.74947 7.5107,2.24787 1.6213,1.4984 2.448,3.90307 2.448,7.2108 v 19.33013 z m -9.6934,-3.0232 c 2.6467,0 4.764,-0.73426 6.2854,-2.1996 1.5226,-1.462 2.284,-3.5128 2.284,-6.14906 v -2.5568 l -4.3014,0.17866 c -3.408,0.1224 -5.856,0.6516 -7.3786,1.59094 -1.488,0.93946 -2.2494,2.39813 -2.2494,4.37946 0,1.5512 0.4627,2.73214 1.3894,3.5392 0.96,0.8104 2.2826,1.2172 3.9706,1.2172 z m 57.8,3.0232 v -18.42706 c 0,-2.25587 -0.4626,-3.94947 -1.456,-5.07734 -0.96,-1.128 -2.448,-1.6936 -4.4666,-1.6936 -2.68,0 -4.6654,0.76747 -5.9227,2.30214 -1.2893,1.53146 -1.9187,3.8932 -1.9187,7.07853 v 15.81733 h -4.3013 v -18.42706 c 0,-2.25587 -0.4627,-3.94947 -1.4547,-5.07734 -0.96,-1.128 -2.4493,-1.6936 -4.5,-1.6936 -2.7133,0 -4.6653,0.80707 -5.9226,2.418 -1.2574,1.6108 -1.852,4.2504 -1.852,7.91854 v 14.86146 h -4.3014 v -28.32333 h 3.4734 l 0.6946,3.87627 h 0.232 c 0.7947,-1.37934 1.952,-2.45507 3.408,-3.2304 1.4894,-0.7752 3.1427,-1.16294 4.9627,-1.16294 4.4333,0 7.312,1.60227 8.668,4.8068 h 0.232 c 0.8267,-1.48186 2.0507,-2.6528 3.64,-3.5148 1.62,-0.86133 3.44,-1.292 5.492,-1.292 3.2093,0 5.5907,0.82267 7.212,2.46827 1.588,1.64387 2.3827,4.2768 2.3827,7.89547 v 18.47666 z m 25.112,0.516 c -4.2026,0 -7.5106,-1.27666 -9.9253,-3.8236 -2.416,-2.55026 -3.64,-6.0928 -3.64,-10.62106 0,-4.56787 1.1253,-8.1932 3.3747,-10.87894 2.2493,-2.68893 5.2933,-4.0328 9.0653,-4.0328 3.5733,0 6.352,1.16734 8.4373,3.50027 2.0507,2.3352 3.1094,5.41467 3.1094,9.23827 v 2.71573 h -19.52 c 0.067,3.32413 0.9266,5.848 2.5146,7.5712 1.588,1.72333 3.8374,2.58333 6.7494,2.58333 3.044,0 6.0546,-0.6384 9.032,-1.91186 v 3.82373 c -1.5214,0.65493 -2.944,1.12467 -4.3014,1.40907 -1.356,0.28453 -2.9773,0.42666 -4.896,0.42666 z m -1.1586,-25.7636 c -2.2827,0 -4.1027,0.74094 -5.4587,2.2228 -1.356,1.48187 -2.1507,3.52934 -2.3827,6.14894 h 14.8227 c 0,-2.7056 -0.628,-4.77627 -1.82,-6.21507 -1.224,-1.43893 -2.944,-2.15667 -5.1613,-2.15667 z m 42.0186,25.2476 -5.1946,-16.61786 c -0.3307,-1.01547 -0.9254,-3.32414 -1.852,-6.92627 h -0.1987 c -0.6947,3.01667 -1.2907,5.342 -1.7867,6.9792 l -5.36,16.56493 h -4.9626 l -7.7427,-28.32333 h 4.5 c 1.82,7.1144 3.2093,12.5324 4.1693,16.2536 0.9587,3.7212 1.5214,6.2284 1.6534,7.52173 h 0.1986 c 0.1987,-0.9824 0.4974,-2.25253 0.9267,-3.81386 0.4307,-1.55787 0.7947,-2.79494 1.092,-3.70787 l 5.1947,-16.2536 h 4.6653 l 5.0613,16.2536 c 0.96,2.96373 1.6214,5.4544 1.952,7.4688 h 0.232 c 0.067,-0.62187 0.232,-1.57773 0.5294,-2.86773 0.2973,-1.29334 2.1173,-8.2428 5.3933,-20.85467 h 4.4667 l -7.8414,28.32333 z m 42.4827,-14.19 c 0,4.6176 -1.1587,8.22294 -3.4747,10.81614 -2.316,2.59333 -5.5586,3.88986 -9.6613,3.88986 -2.5147,0 -4.764,-0.59533 -6.716,-1.7828 -1.9853,-1.1908 -3.5067,-2.89426 -4.5653,-5.11706 -1.0587,-2.22267 -1.588,-4.82254 -1.588,-7.80614 0,-4.61413 1.1573,-8.21293 3.44,-10.7864 2.316,-2.57626 5.5253,-3.864 9.628,-3.864 3.9706,0 7.1133,1.31774 9.4293,3.95334 2.3493,2.63626 3.508,6.202 3.508,10.69706 z m -21.572,0 c 0,3.61867 0.728,6.37734 2.1827,8.26934 1.4226,1.8952 3.5733,2.84453 6.3866,2.84453 2.812,0 4.9294,-0.94267 6.3854,-2.83133 1.456,-1.88547 2.1826,-4.64734 2.1826,-8.28254 0,-3.59866 -0.7266,-6.33413 -2.1826,-8.20306 -1.456,-1.8688 -3.6067,-2.80494 -6.452,-2.80494 -2.812,0 -4.9294,0.92294 -6.352,2.76534 -1.4227,1.8456 -2.1507,4.59106 -2.1507,8.24266 z m 42.0187,-14.6504 c 1.2573,0 2.3813,0.1036 3.4066,0.31027 l -0.5946,3.98053 c -1.1907,-0.258 -2.2174,-0.3904 -3.1107,-0.3904 -2.2827,0 -4.268,0.9328 -5.8893,2.79174 -1.6214,1.86226 -2.448,4.1776 -2.448,6.9528 v 15.19546 h -4.268 v -28.32333 h 3.54 l 0.496,5.2456 h 0.1986 c 1.0587,-1.8424 2.316,-3.26467 3.8054,-4.264 1.456,-0.9988 3.1093,-1.49867 4.864,-1.49867 z m 12.936,14.3428 c 0.728,-1.05186 1.8533,-2.43106 3.3746,-4.13453 l 9.164,-9.6912 h 5.096 l -11.4813,12.06933 12.2747,16.254 h -5.1934 l -9.992,-13.38613 -3.2426,2.78827 v 10.59786 h -4.2347 v -40.21053 h 4.2347 v 21.3204 c 0,0.946 -0.067,2.4112 -0.1987,4.39253 z"
     inkscape:connector-curvature="0" /><path
     inkscape:connector-curvature="0"
     d="m 1587.4398,296.03864 c 0,55.71807 -92.4739,100.8846 -206.5525,100.8846 -114.0786,0 -206.5525,-45.16653 -206.5525,-100.8846 0,-55.71807 92.4739,-100.8846 206.5525,-100.8846 114.0786,0 206.5525,45.16653 206.5525,100.8846 z"
     style="fill:none;stroke:#000000;stroke-width:3.30811858;stroke-linecap:butt;stroke-linejoin:miter;stroke-miterlimit:1.45000005;stroke-dasharray:none;stroke-opacity:1"
     id="path70" /><path
     id="path72"
     style="fill:#ffffff;fill-opacity:1;fill-rule:nonzero;stroke:none;stroke-width:1.33333325"
     d="m 414.76242,296.03868 c 0,55.71813 -92.4772,100.88467 -206.55253,100.88467 -114.081997,0 -206.5557917,-45.16654 -206.5557917,-100.88467 0,-55.718 92.4737947,-100.88453 206.5557917,-100.88453 114.07533,0 206.55253,45.16653 206.55253,100.88453 z"
     inkscape:connector-curvature="0" /><path
     id="path74"
     style="fill:#000000;fill-opacity:1;fill-rule:nonzero;stroke:none;stroke-width:1.33333325"
     d="m 149.27803,290.48282 c -1.6212,0 -2.89494,-0.23254 -3.828,-0.69774 v -3.7468 c 1.22426,0.34427 2.50133,0.51667 3.828,0.51667 1.70399,0 3.00093,-0.51667 3.89093,-1.5504 0.88666,-1.0336 1.33,-2.52413 1.33,-4.47067 v -37.7788 h 4.39373 v 37.41694 c 0,3.27333 -0.82707,5.81 -2.48133,7.6104 -1.65427,1.80026 -4.0332,2.7004 -7.13333,2.7004 z m 48.17906,-47.72774 v 24.44454 c 0,4.30693 -1.30027,7.6924 -3.9008,10.15586 -2.60373,2.4636 -6.18027,3.69547 -10.7296,3.69547 -4.5492,0 -8.06627,-1.2404 -10.5576,-3.7212 -2.49133,-2.4808 -3.73533,-5.892 -3.73533,-10.23333 v -24.34134 h 4.39373 v 24.6516 c 0,3.15254 0.8636,5.5728 2.584,7.26134 1.72373,1.68826 4.25813,2.5324 7.59973,2.5324 3.18947,0 5.6444,-0.8484 7.36814,-2.54534 1.72373,-1.69706 2.584,-4.13026 2.584,-7.3004 v -24.5996 z m 28.74467,37.7788 v -18.3216 c 0,-2.3084 -0.526,-4.03013 -1.57814,-5.168 -1.05213,-1.13786 -2.69653,-1.7068 -4.9364,-1.7068 -2.9644,0 -5.1348,0.80387 -6.51453,2.4048 -1.3764,1.60094 -2.06787,4.246 -2.06787,7.9328 v 14.8588 h -4.2912 v -28.32213 h 3.49054 l 0.69813,3.87667 h 0.2084 c 0.8768,-1.39587 2.11093,-2.47747 3.69573,-3.24494 1.5848,-0.764 3.35147,-1.14773 5.29694,-1.14773 3.4144,0 5.98186,0.8204 7.70226,2.4676 1.72374,1.64387 2.58734,4.2768 2.58734,7.89413 v 18.4764 z m 17.39626,0 h -4.29106 v -28.32213 h 4.29106 z m -4.65506,-35.996 c 0,-0.9824 0.24146,-1.70346 0.72453,-2.15986 0.48307,-0.45654 1.0852,-0.68467 1.80987,-0.68467 0.68813,0 1.2836,0.2348 1.7832,0.69787 0.4996,0.4664 0.75106,1.18093 0.75106,2.14666 0,0.96254 -0.25146,1.6836 -0.75106,2.15667 -0.4996,0.47293 -1.09507,0.7112 -1.7832,0.7112 -0.72467,0 -1.3268,-0.23827 -1.80987,-0.7112 -0.48307,-0.47307 -0.72453,-1.19413 -0.72453,-2.15667 z m 22.90173,32.9724 c 0.75773,0 1.49213,-0.0559 2.19693,-0.1676 0.708,-0.11213 1.2672,-0.22866 1.68067,-0.34906 v 3.282 c -0.46653,0.22386 -1.15133,0.40906 -2.05453,0.55533 -0.90334,0.14653 -1.72054,0.22 -2.44174,0.22 -5.48226,0 -8.22173,-2.88573 -8.22173,-8.65693 v -16.84814 h -4.05627 v -2.0672 l 4.05627,-1.78293 1.80973,-6.0464 h 2.48147 v 6.5624 h 8.22173 v 3.33413 h -8.22173 v 16.6672 c 0,1.70547 0.40693,3.01467 1.21427,3.92787 0.81053,0.91293 1.92226,1.36933 3.33493,1.36933 z"
     inkscape:connector-curvature="0" /><path
     id="path76"
     style="fill:#000000;fill-opacity:1;fill-rule:nonzero;stroke:none;stroke-width:1.33333325"
     d="M 113.87989,352.60681 H 92.837633 v -37.78146 h 21.042257 v 3.90213 H 97.204833 v 12.17093 h 15.682527 v 3.87667 H 97.204833 v 13.90227 h 16.675057 z m 14.5576,-14.4976 -9.82626,-13.82573 h 4.86346 l 7.47734,10.85213 7.44426,-10.85213 h 4.83374 l -9.8628,13.82573 10.37893,14.4976 h -4.86027 l -7.93386,-11.4744 -8.00667,11.4744 h -4.8636 z m 30.06813,11.4744 c 0.7576,0 1.4888,-0.0563 2.1968,-0.16866 0.7048,-0.11254 1.2672,-0.22827 1.6808,-0.35067 v 3.2812 c -0.46653,0.22493 -1.15133,0.41027 -2.05466,0.55573 -0.90654,0.14894 -1.7204,0.2216 -2.44494,0.2216 -5.47893,0 -8.2184,-2.8876 -8.2184,-8.65613 v -16.84947 h -4.05959 v -2.0676 l 4.05959,-1.7832 1.80974,-6.0468 h 2.48133 v 6.56387 h 8.21853 v 3.33373 h -8.21853 v 16.66747 c 0,1.7068 0.40373,3.01333 1.21427,3.92627 0.81066,0.91293 1.92226,1.37266 3.33506,1.37266 z m 21.50547,3.5392 c -4.18853,0 -7.49373,-1.27666 -9.9124,-3.8236 -2.42173,-2.55026 -3.63267,-6.0928 -3.63267,-10.62106 0,-4.56787 1.1248,-8.1932 3.37467,-10.87894 2.24653,-2.68893 5.2672,-4.0328 9.0588,-4.0328 3.55,0 6.35907,1.16734 8.4268,3.50027 2.06787,2.3352 3.10013,5.41467 3.10013,9.23827 v 2.71573 h -19.51373 c 0.086,3.32413 0.9264,5.848 2.52107,7.5712 1.59146,1.72333 3.83786,2.58333 6.73293,2.58333 3.0504,0 6.06453,-0.6384 9.04547,-1.91186 v 3.82373 c -1.5152,0.65493 -2.9512,1.12467 -4.3044,1.40907 -1.3532,0.28453 -2.98427,0.42666 -4.89667,0.42666 z m -1.16453,-25.7636 c -2.27294,0 -4.08614,0.74094 -5.4392,2.2228 -1.3532,1.48187 -2.15067,3.52934 -2.39214,6.14894 h 14.8124 c 0,-2.7056 -0.60546,-4.77627 -1.80986,-6.21507 -1.2076,-1.43893 -2.93134,-2.15667 -5.1712,-2.15667 z m 38.2832,25.2476 v -18.32453 c 0,-2.30547 -0.52614,-4.0288 -1.57827,-5.16667 -1.052,-1.13786 -2.6964,-1.7068 -4.93627,-1.7068 -2.96453,0 -5.13493,0.80387 -6.51453,2.40467 -1.37973,1.60093 -2.06787,4.2472 -2.06787,7.93187 v 14.86146 h -4.2912 v -28.32333 h 3.49054 l 0.69813,3.87627 h 0.20507 c 0.88013,-1.39587 2.11093,-2.4768 3.69573,-3.2432 1.588,-0.7668 3.3548,-1.15014 5.30027,-1.15014 3.41106,0 5.97853,0.82267 7.70226,2.46827 1.72374,1.64387 2.584,4.2768 2.584,7.89547 v 18.47666 z m 31.37826,-7.72666 c 0,2.6328 -0.98266,4.66706 -2.948,6.096 -1.962,1.43226 -4.7212,2.14666 -8.27133,2.14666 -3.7552,0 -6.68653,-0.59533 -8.78747,-1.7828 v -3.9792 c 1.36307,0.688 2.82214,1.23054 4.38054,1.62747 1.5616,0.39693 3.0636,0.59533 4.5128,0.59533 2.23986,0 3.9604,-0.36053 5.168,-1.07493 1.2076,-0.71453 1.80973,-1.8028 1.80973,-3.268 0,-1.10147 -0.47973,-2.04427 -1.43587,-2.82813 -0.95626,-0.78387 -2.82226,-1.71014 -5.5948,-2.7784 -2.63693,-0.9824 -4.5096,-1.8392 -5.6212,-2.57347 -1.11173,-0.73093 -1.9388,-1.5612 -2.48146,-2.494 -0.54254,-0.92947 -0.81387,-2.0408 -0.81387,-3.3308 0,-2.3088 0.93627,-4.13133 2.8156,-5.46667 1.8792,-1.33533 4.45653,-2.0028 7.7288,-2.0028 3.0504,0 6.03147,0.62027 8.94293,1.86054 l -1.5252,3.48866 c -2.84213,-1.17093 -5.41946,-1.7564 -7.7288,-1.7564 -2.03146,0 -3.56666,0.3176 -4.59893,0.956 -1.03547,0.63827 -1.5516,1.51494 -1.5516,2.63614 0,0.75746 0.1952,1.40253 0.58227,1.9384 0.38706,0.53253 1.0124,1.04186 1.87266,1.5248 0.86347,0.4796 2.51774,1.1776 4.9628,2.0904 3.36147,1.22386 5.63107,2.45773 6.81227,3.698 1.1812,1.2404 1.77013,2.7984 1.77013,4.6772 z m 11.2688,7.72666 h -4.2912 v -28.32333 h 4.2912 z m -4.65173,-35.99826 c 0,-0.982 0.24147,-1.70147 0.72453,-2.15787 0.48307,-0.45653 1.0852,-0.6848 1.80974,-0.6848 0.68826,0 1.28373,0.23253 1.78333,0.6976 0.4996,0.46507 0.74773,1.18027 0.74773,2.14507 0,0.96453 -0.24813,1.684 -0.74773,2.1576 -0.4996,0.47373 -1.09507,0.71053 -1.78333,0.71053 -0.72454,0 -1.32667,-0.2368 -1.80974,-0.71053 -0.48306,-0.4736 -0.72453,-1.19307 -0.72453,-2.1576 z m 38.20373,21.80826 c 0,4.6176 -1.16467,8.22294 -3.49053,10.81614 -2.32587,2.59333 -5.53854,3.88986 -9.64107,3.88986 -2.5344,0 -4.7808,-0.59533 -6.74613,-1.7828 -1.96533,-1.1908 -3.48053,-2.89426 -4.5492,-5.11706 -1.06867,-2.22267 -1.60133,-4.82254 -1.60133,-7.80614 0,-4.61413 1.15466,-8.21293 3.464,-10.7864 2.306,-2.57626 5.512,-3.864 9.61466,-3.864 3.9636,0 7.11,1.31774 9.44587,3.95334 2.33586,2.63626 3.50373,6.202 3.50373,10.69706 z m -21.58493,0 c 0,3.61867 0.72453,6.37734 2.17373,8.26934 1.44587,1.8952 3.5732,2.84453 6.38214,2.84453 2.80893,0 4.94293,-0.94267 6.39879,-2.83133 1.45574,-1.88547 2.1836,-4.64734 2.1836,-8.28254 0,-3.59866 -0.72786,-6.33413 -2.1836,-8.20306 -1.45586,-1.8688 -3.6064,-2.80494 -6.44839,-2.80494 -2.80894,0 -4.92974,0.92294 -6.35907,2.76534 -1.4292,1.8456 -2.1472,4.59106 -2.1472,8.24266 z m 48.49333,14.19 v -18.32453 c 0,-2.30547 -0.526,-4.0288 -1.57813,-5.16667 -1.05214,-1.13786 -2.69654,-1.7068 -4.9364,-1.7068 -2.9644,0 -5.1348,0.80387 -6.51454,2.40467 -1.3796,1.60093 -2.06786,4.2472 -2.06786,7.93187 v 14.86146 h -4.2912 v -28.32333 h 3.49053 l 0.69813,3.87627 h 0.2052 c 0.88,-1.39587 2.1108,-2.4768 3.69894,-3.2432 1.5848,-0.7668 3.35146,-1.15014 5.29693,-1.15014 3.41107,0 5.97853,0.82267 7.70227,2.46827 1.72373,1.64387 2.58733,4.2768 2.58733,7.89547 v 18.47666 z"
     inkscape:connector-curvature="0" /><path
     inkscape:connector-curvature="0"
     d="m 414.76233,296.03864 c 0,55.71807 -92.47715,100.8846 -206.55248,100.8846 -114.081947,0 -206.5557907,-45.16653 -206.5557907,-100.8846 0,-55.71807 92.4738437,-100.8846 206.5557907,-100.8846 114.07533,0 206.55248,45.16653 206.55248,100.8846 z"
     style="fill:none;stroke:#000000;stroke-width:3.30811858;stroke-linecap:butt;stroke-linejoin:miter;stroke-miterlimit:1.45000005;stroke-dasharray:none;stroke-opacity:1"
     id="path80" /><path
     inkscape:connector-curvature="0"
     d="M 589.41713,444.88478 V 372.06594"
     style="fill:none;stroke:#000000;stroke-width:3.30811858;stroke-linecap:butt;stroke-linejoin:miter;stroke-miterlimit:1.45000005;stroke-dasharray:none;stroke-opacity:1"
     id="path84" /><path
     id="path86"
     style="fill:#000000;fill-opacity:1;fill-rule:nonzero;stroke:none;stroke-width:1.33333325"
     d="m 589.41721,345.60441 -16.5428,39.6924 16.5428,-9.92306 16.54267,9.92306 z"
     inkscape:connector-curvature="0" /><path
     inkscape:connector-curvature="0"
     d="M 999.21353,444.88478 V 372.06594"
     style="fill:none;stroke:#000000;stroke-width:3.30811858;stroke-linecap:butt;stroke-linejoin:miter;stroke-miterlimit:1.45000005;stroke-dasharray:none;stroke-opacity:1"
     id="path90" /><path
     id="path92"
     style="fill:#000000;fill-opacity:1;fill-rule:nonzero;stroke:none;stroke-width:1.33333325"
     d="m 999.21363,345.60441 -16.5428,39.6924 16.5428,-9.92306 16.54257,9.92306 z"
     inkscape:connector-curvature="0" /><path
     inkscape:connector-curvature="0"
     d="m 794.54694,147.19251 v 72.76922"
     style="fill:none;stroke:#000000;stroke-width:3.30811858;stroke-linecap:butt;stroke-linejoin:miter;stroke-miterlimit:1.45000005;stroke-dasharray:none;stroke-opacity:1"
     id="path96" /><path
     id="path98"
     style="fill:#000000;fill-opacity:1;fill-rule:nonzero;stroke:none;stroke-width:1.33333325"
     d="m 794.54694,246.42335 16.5428,-39.6924 -16.5428,9.9232 -16.54266,-9.9232 z"
     inkscape:connector-curvature="0" /><path
     inkscape:connector-curvature="0"
     d="M 1174.4341,293.8335 H 1062.3406"
     style="fill:none;stroke:#000000;stroke-width:3.30811858;stroke-linecap:butt;stroke-linejoin:miter;stroke-miterlimit:1.45000005;stroke-dasharray:none;stroke-opacity:1"
     id="path102" /><path
     id="path104"
     style="fill:#000000;fill-opacity:1;fill-rule:nonzero;stroke:none;stroke-width:1.33333325"
     d="m 1035.8722,293.83362 39.7026,16.53826 -9.9256,-16.53826 9.9256,-16.53867 z"
     inkscape:connector-curvature="0" /><path
     inkscape:connector-curvature="0"
     d="M 566.48891,74.423276 H 208.20985 V 168.6925"
     style="fill:none;stroke:#000000;stroke-width:3.30811858;stroke-linecap:butt;stroke-linejoin:miter;stroke-miterlimit:1.45000005;stroke-dasharray:none;stroke-opacity:1"
     id="path108" /><path
     id="path110"
     style="fill:#000000;fill-opacity:1;fill-rule:nonzero;stroke:none;stroke-width:1.33333325"
     d="m 208.20989,195.15415 16.54267,-39.6924 -16.54267,9.92307 -16.5428,-9.92307 z"
     inkscape:connector-curvature="0" /><path
     inkscape:connector-curvature="0"
     d="m 414.76233,296.03864 h 112.0472"
     style="fill:none;stroke:#000000;stroke-width:3.30811858;stroke-linecap:butt;stroke-linejoin:miter;stroke-miterlimit:1.45000005;stroke-dasharray:none;stroke-opacity:1"
     id="path114" /><path
     id="path116"
     style="fill:#000000;fill-opacity:1;fill-rule:nonzero;stroke:none;stroke-width:1.33333325"
     d="m 553.27788,296.03868 -39.70253,-16.5384 9.9256,16.5384 -9.9256,16.53853 z"
     inkscape:connector-curvature="0" /></svg>