<?xml version="1.0" encoding="UTF-8" standalone="no"?>
<!-- Created with Inkscape (http://www.inkscape.org/) -->

<svg
   xmlns:dc="http://purl.org/dc/elements/1.1/"
   xmlns:cc="http://creativecommons.org/ns#"
   xmlns:rdf="http://www.w3.org/1999/02/22-rdf-syntax-ns#"
   xmlns:svg="http://www.w3.org/2000/svg"
   xmlns="http://www.w3.org/2000/svg"
   xmlns:sodipodi="http://sodipodi.sourceforge.net/DTD/sodipodi-0.dtd"
   xmlns:inkscape="http://www.inkscape.org/namespaces/inkscape"
   width="105.9956"
   height="106"
   viewBox="0 0 105.9956 106"
   id="svg2"
   version="1.1"
   inkscape:version="0.91 r13725"
   sodipodi:docname="junit5-logo.svg"
   inkscape:export-filename="/Users/mphilipp/Desktop/junit5.png"
   inkscape:export-xdpi="384"
   inkscape:export-ydpi="384">
  <defs
     id="defs4" />
  <sodipodi:namedview
     id="base"
     pagecolor="#ffffff"
     bordercolor="#666666"
     borderopacity="1.0"
     inkscape:pageopacity="0"
     inkscape:pageshadow="2"
     inkscape:zoom="5.7539692"
     inkscape:cx="46.275524"
     inkscape:cy="55.5492"
     inkscape:document-units="px"
     inkscape:current-layer="layer1"
     showgrid="false"
     units="px"
     inkscape:window-width="1680"
     inkscape:window-height="1001"
     inkscape:window-x="0"
     inkscape:window-y="1"
     inkscape:window-maximized="1"
     showguides="true"
     fit-margin-top="0"
     fit-margin-left="0"
     fit-margin-right="0"
     fit-margin-bottom="0" />
  <metadata
     id="metadata7">
    <rdf:RDF>
      <cc:Work
         rdf:about="">
        <dc:format>image/svg+xml</dc:format>
        <dc:type
           rdf:resource="http://purl.org/dc/dcmitype/StillImage" />
        <dc:title></dc:title>
      </cc:Work>
    </rdf:RDF>
  </metadata>
  <g
     inkscape:label="Ebene 1"
     inkscape:groupmode="layer"
     id="layer1"
     transform="translate(-1690.9939,-660.30924)">
    <g
       id="g4502"
       inkscape:export-filename="/Users/marcp/Desktop/junit5-banner.png"
       inkscape:export-xdpi="253.15768"
       inkscape:export-ydpi="253.15768">
      <path
         style="opacity:1;fill:#25a162;fill-opacity:1;stroke:none;stroke-width:0.2;stroke-miterlimit:4;stroke-dasharray:none;stroke-opacity:1"
         d="m 1762.0809,663.59354 0,7.631 -0.9034,5.8222 -33.0478,0.3407 -2.7253,31.3436 c 0,0 -2e-4,-0.3406 10.5614,-1.3627 10.5616,-1.0221 22.8268,4.7699 25.2117,8.1768 2.3849,3.407 9.1984,18.0576 -4.7702,28.9599 -13.958,10.8941 -35.3945,0.019 -35.4268,0 l 0,0 -0.01,0 -0.3068,0 -0.3068,0 0,4.3825 0,11.846 c 7.333,3.6583 15.4219,5.5715 23.6326,5.5757 29.2711,0 53,-23.7289 53,-53 -0.024,-21.8358 -13.4369,-41.422 -33.7875,-49.3375 -0.3737,-0.1302 -0.7489,-0.2563 -1.1255,-0.3782 z m -43.2657,96.3382 c 0.5103,0.2759 1.0252,0.5413 1.5433,0.7999 -0.5181,-0.2586 -1.033,-0.524 -1.5433,-0.7999 z"
         id="path3498"
         inkscape:connector-curvature="0"
         sodipodi:nodetypes="cccccssscccccccccccccc" />
      <path
         style="fill:#dc524a;fill-opacity:1;fill-rule:evenodd;stroke:none;stroke-width:1px;stroke-linecap:butt;stroke-linejoin:miter;stroke-opacity:1"
         d="m 1743.9939,660.30924 a 53,53 0 0 0 -53,53 53,53 0 0 0 27.8213,46.6225 c 0.5113,0.2765 1.027,0.5428 1.5461,0.8018 l 0,-11.846 0,-4.3825 0.6136,0 0.01,0 0,0 c 0.032,0.016 21.4687,10.8912 35.4268,0 13.9686,-10.9023 7.1551,-25.5529 4.7702,-28.9599 -2.3849,-3.4069 -14.6501,-9.1989 -25.2117,-8.1768 -10.5616,1.0221 -10.5614,1.3627 -10.5614,1.3627 l 2.7253,-31.3436 31.496,-0.3247 2.4552,0 0,-5.8382 0,-1.8332 0,-5.7978 a 53,53 0 0 0 -18.087,-3.2843 z"
         id="path3500"
         inkscape:connector-curvature="0" />
      <text
         sodipodi:linespacing="125%"
         id="text3502"
         y="748.52563"
         x="1714.5608"
         style="font-style:normal;font-variant:normal;font-weight:600;font-stretch:normal;font-size:101.10263062px;line-height:125%;font-family:'Open Sans';-inkscape-font-specification:'Open Sans, Semi-Bold';text-align:start;letter-spacing:0px;word-spacing:0px;writing-mode:lr-tb;text-anchor:start;opacity:1;fill:#ffffff;fill-opacity:1;stroke:none;stroke-width:1px;stroke-linecap:butt;stroke-linejoin:miter;stroke-opacity:1"
         xml:space="preserve"><tspan
           y="748.52563"
           x="1714.5608"
           id="tspan3504"
           sodipodi:role="line">5</tspan></text>
    </g>
  </g>
</svg>
